<svg xmlns="http://www.w3.org/2000/svg" viewBox="0 0 640 520">
  <defs>
    <style>
      .cls-1 {
        fill: #fffae5;
      }

      .cls-2 {
        fill: #10162f;
      }

      .cls-3 {
        fill: #fff;
      }

      .cls-4 {
        fill: #f866ff;
      }

      .cls-5 {
        fill: #66c4ff;
      }
    </style>
  </defs>
  <g id="BG">
    <g>
      <rect class="cls-1" x="0.5" y="0.5" width="639" height="519"/>
      <path class="cls-2" d="M639,1V519H1V1H639m1-1H0V520H640V0Z"/>
    </g>
  </g>
  <g id="Layer_4" data-name="Layer 4">
    <g>
      <g>
        <rect class="cls-3" x="154.16" y="40.88" width="76.8" height="30" transform="translate(385.12 111.76) rotate(180)"/>
        <path class="cls-2" d="M231.46,71.38h-77.8v-31h77.8Zm-76.8-1h75.8v-29h-75.8Z"/>
      </g>
      <g>
        <path class="cls-2" d="M167.53,50.28a4.92,4.92,0,0,1,2.26.53,4.09,4.09,0,0,1,1.67,1.63,6.19,6.19,0,0,1,0,5.48,4.09,4.09,0,0,1-1.67,1.63,4.92,4.92,0,0,1-2.26.53h-3.06v-9.8Zm1.77,7.4a2.93,2.93,0,0,0,.95-2.5,2.94,2.94,0,0,0-.95-2.5A3.73,3.73,0,0,0,167,52h-.67V58.4H167A3.73,3.73,0,0,0,169.3,57.68Z"/>
        <path class="cls-2" d="M174,59.63a2.05,2.05,0,0,1-.6-1.58,2,2,0,0,1,.8-1.68,3.37,3.37,0,0,1,2.15-.63h1.23v-.31a.88.88,0,0,0-.35-.77,1.37,1.37,0,0,0-.88-.26,1.2,1.2,0,0,0-1.22.81l-1.47-.34a2.26,2.26,0,0,1,.91-1.42,2.92,2.92,0,0,1,1.78-.54,3,3,0,0,1,2.19.75,2.93,2.93,0,0,1,.78,2.21v4.21h-1.43l-.18-.9a2.64,2.64,0,0,1-2.17,1A2.15,2.15,0,0,1,174,59.63Zm3.11-1.32a1.34,1.34,0,0,0,.47-1.06v-.14h-1.16a1.52,1.52,0,0,0-.89.23.77.77,0,0,0-.31.68.64.64,0,0,0,.21.5.84.84,0,0,0,.57.19A1.67,1.67,0,0,0,177.07,58.31Z"/>
        <path class="cls-2" d="M182,59.53a2.57,2.57,0,0,1-.68-1.94V54.51h-1.09V53h1.09V51.26l1.73-1.09V53h1.87v1.49h-1.87v3.05a1.36,1.36,0,0,0,.23.89.91.91,0,0,0,.7.26,1.45,1.45,0,0,0,.67-.17l.41,1.4a2.71,2.71,0,0,1-1.15.25A2.66,2.66,0,0,1,182,59.53Z"/>
        <path class="cls-2" d="M186.39,59.63a2.26,2.26,0,0,1,.2-3.26,3.37,3.37,0,0,1,2.15-.63H190v-.31a.9.9,0,0,0-.35-.77,1.42,1.42,0,0,0-.89-.26,1.18,1.18,0,0,0-1.21.81l-1.47-.34a2.2,2.2,0,0,1,.9-1.42,2.92,2.92,0,0,1,1.78-.54,3,3,0,0,1,2.2.75,3,3,0,0,1,.77,2.21v4.21h-1.43l-.18-.9a2.64,2.64,0,0,1-2.17,1A2.15,2.15,0,0,1,186.39,59.63Zm3.11-1.32a1.32,1.32,0,0,0,.48-1.06v-.14h-1.17a1.52,1.52,0,0,0-.89.23.77.77,0,0,0-.31.68.62.62,0,0,0,.22.5.79.79,0,0,0,.56.19A1.67,1.67,0,0,0,189.5,58.31Z"/>
        <path class="cls-2" d="M195.9,59.93a1.56,1.56,0,0,1-.63-.58v.73h-1.74V50.17h1.74v3.5a1.84,1.84,0,0,1,.71-.53,2.32,2.32,0,0,1,1-.23,2.93,2.93,0,0,1,2.38,1,4.62,4.62,0,0,1,0,5.31,3,3,0,0,1-2.38,1A2.24,2.24,0,0,1,195.9,59.93Zm2-1.8a2.91,2.91,0,0,0,0-3.17,1.5,1.5,0,0,0-2.34,0,3,3,0,0,0,0,3.18,1.48,1.48,0,0,0,2.34,0Z"/>
        <path class="cls-2" d="M201.92,59.63a2.27,2.27,0,0,1,.19-3.26,3.42,3.42,0,0,1,2.16-.63h1.23v-.31a.9.9,0,0,0-.35-.77,1.39,1.39,0,0,0-.88-.26,1.19,1.19,0,0,0-1.22.81l-1.47-.34a2.2,2.2,0,0,1,.9-1.42,3,3,0,0,1,1.79-.54,3,3,0,0,1,2.19.75,2.93,2.93,0,0,1,.78,2.21v4.21h-1.43l-.18-.9a2.66,2.66,0,0,1-2.17,1A2.13,2.13,0,0,1,201.92,59.63ZM205,58.31a1.34,1.34,0,0,0,.47-1.06v-.14h-1.16a1.52,1.52,0,0,0-.89.23.78.78,0,0,0-.32.68.65.65,0,0,0,.22.5.84.84,0,0,0,.57.19A1.67,1.67,0,0,0,205,58.31Z"/>
        <path class="cls-2" d="M209.39,59.63a2.65,2.65,0,0,1-1-1.34l1.39-.74a2.09,2.09,0,0,0,.55.85,1.24,1.24,0,0,0,.85.31.9.9,0,0,0,.57-.18A.58.58,0,0,0,212,58a.66.66,0,0,0-.36-.55,7.74,7.74,0,0,0-1.09-.51,3.34,3.34,0,0,1-1.24-.81,1.79,1.79,0,0,1-.44-1.26,1.82,1.82,0,0,1,.28-1,2.09,2.09,0,0,1,.79-.71,2.41,2.41,0,0,1,1.15-.27,2.8,2.8,0,0,1,1.3.3,2.14,2.14,0,0,1,.91.85l-1,.95a1.31,1.31,0,0,0-1.14-.61.87.87,0,0,0-.48.14.47.47,0,0,0-.2.39.62.62,0,0,0,.29.47,5.2,5.2,0,0,0,1.15.52,3.23,3.23,0,0,1,1.27.77,1.72,1.72,0,0,1,.45,1.22,2.16,2.16,0,0,1-.67,1.66,2.49,2.49,0,0,1-1.74.62A2.88,2.88,0,0,1,209.39,59.63Z"/>
        <path class="cls-2" d="M221.18,57.11h-4.87a1.93,1.93,0,0,0,.55,1.19,1.62,1.62,0,0,0,1.13.41,1.74,1.74,0,0,0,1-.27,2.57,2.57,0,0,0,.72-.82l1.4.51a3.48,3.48,0,0,1-1.21,1.53,3.52,3.52,0,0,1-2,.53,3.24,3.24,0,0,1-1.91-.54,3.17,3.17,0,0,1-1.12-1.37,4.29,4.29,0,0,1-.36-1.73,4.36,4.36,0,0,1,.36-1.73,3.13,3.13,0,0,1,3-1.91,3.07,3.07,0,0,1,2.94,1.85,4.1,4.1,0,0,1,.35,1.64Zm-1.78-1.37a2,2,0,0,0-.49-1,1.38,1.38,0,0,0-1-.37,1.43,1.43,0,0,0-1,.34,1.81,1.81,0,0,0-.58,1Z"/>
      </g>
    </g>
    <g>
      <g>
        <rect class="cls-3" x="343.59" y="41.12" width="148" height="30" transform="translate(835.19 112.24) rotate(180)"/>
        <path class="cls-2" d="M492.09,71.62h-149v-31h149Zm-148-1h147v-29h-147Z"/>
      </g>
      <g>
        <path class="cls-2" d="M369.64,50.52h1.82v9.8h-1.82Z"/>
        <path class="cls-2" d="M375.2,53.27V54.4a3.23,3.23,0,0,1,1-.91,2.35,2.35,0,0,1,1.22-.33,2.25,2.25,0,0,1,1.57.54,2,2,0,0,1,.6,1.58v5h-1.74V55.8a1.24,1.24,0,0,0-.27-.88,1,1,0,0,0-.74-.28,1.15,1.15,0,0,0-.8.34,2.36,2.36,0,0,0-.58,1,4.77,4.77,0,0,0-.23,1.55v2.81h-1.73v-7Z"/>
        <path class="cls-2" d="M380.72,53.27h1.75l1.43,4.91,1.43-4.91h1.75l-2.4,7h-1.57Z"/>
        <path class="cls-2" d="M394.35,57.36h-4.87a1.93,1.93,0,0,0,.56,1.19,1.59,1.59,0,0,0,1.12.4,1.82,1.82,0,0,0,1-.26,2.39,2.39,0,0,0,.72-.83l1.4.52a3.22,3.22,0,0,1-3.21,2.06,3.13,3.13,0,0,1-3-1.91,4.53,4.53,0,0,1-.35-1.73,4.46,4.46,0,0,1,.35-1.73,3.12,3.12,0,0,1,1.12-1.37,3.24,3.24,0,0,1,1.91-.54A3,3,0,0,1,394,55a4,4,0,0,1,.35,1.64ZM392.58,56a1.93,1.93,0,0,0-.5-1,1.38,1.38,0,0,0-1-.38,1.43,1.43,0,0,0-1,.34,2,2,0,0,0-.58,1Z"/>
        <path class="cls-2" d="M397.66,53.27V54.4a3.32,3.32,0,0,1,1-.91,2.38,2.38,0,0,1,1.22-.33,2.26,2.26,0,0,1,1.58.54,2.07,2.07,0,0,1,.59,1.58v5h-1.73V55.8a1.19,1.19,0,0,0-.28-.88,1,1,0,0,0-.73-.28,1.13,1.13,0,0,0-.8.34,2.37,2.37,0,0,0-.59,1,4.79,4.79,0,0,0-.22,1.55v2.81h-1.74v-7Z"/>
        <path class="cls-2" d="M404.77,59.78a2.58,2.58,0,0,1-.69-2V54.75H403V53.27h1.09V51.5l1.74-1.09v2.86h1.86v1.48h-1.86v3a1.36,1.36,0,0,0,.23.89.87.87,0,0,0,.69.26,1.37,1.37,0,0,0,.68-.17l.4,1.4a2.91,2.91,0,0,1-3.05-.4Z"/>
        <path class="cls-2" d="M410,60a3.14,3.14,0,0,1-1.23-1.3,3.92,3.92,0,0,1-.43-1.86,4,4,0,0,1,.43-1.87,3.14,3.14,0,0,1,1.23-1.3,3.85,3.85,0,0,1,1.92-.47,3.79,3.79,0,0,1,1.92.47,3.23,3.23,0,0,1,1.24,1.3,4.09,4.09,0,0,1,.43,1.87,4,4,0,0,1-.43,1.86A3.23,3.23,0,0,1,413.8,60a3.7,3.7,0,0,1-1.92.48A3.75,3.75,0,0,1,410,60Zm3.21-1.63a2.69,2.69,0,0,0,0-3.07,1.65,1.65,0,0,0-2.58,0,2.74,2.74,0,0,0,0,3.07,1.65,1.65,0,0,0,2.58,0Z"/>
        <path class="cls-2" d="M418.77,53.27v1.15a2.67,2.67,0,0,1,.93-.93,2.19,2.19,0,0,1,1.16-.33,2.74,2.74,0,0,1,.85.14l-.32,1.61a1.4,1.4,0,0,0-.73-.2,1.62,1.62,0,0,0-1.36.75,4.18,4.18,0,0,0-.53,2.36v2.5H417v-7Z"/>
        <path class="cls-2" d="M427.46,53.27h1.74l-3.64,9.91h-1.68l1.2-3.33-2.54-6.58h1.75l1.61,4.34Z"/>
        <path class="cls-2" d="M435.88,52.2h-2.73V50.52h7.28V52.2H437.7v8.12h-1.82Z"/>
        <path class="cls-2" d="M440.72,59.88a2.07,2.07,0,0,1-.6-1.59,2,2,0,0,1,.8-1.68,3.37,3.37,0,0,1,2.15-.63h1.24v-.3a.91.91,0,0,0-.35-.78,1.49,1.49,0,0,0-.89-.26,1.18,1.18,0,0,0-1.21.81l-1.47-.33a2.18,2.18,0,0,1,.9-1.42,2.92,2.92,0,0,1,1.78-.54,3,3,0,0,1,2.19.75,2.89,2.89,0,0,1,.78,2.2v4.21h-1.43l-.18-.89a2.67,2.67,0,0,1-2.17,1A2.19,2.19,0,0,1,440.72,59.88Zm3.11-1.33a1.28,1.28,0,0,0,.48-1v-.14h-1.17a1.52,1.52,0,0,0-.89.22.79.79,0,0,0-.31.69.6.6,0,0,0,.22.49.79.79,0,0,0,.56.19A1.67,1.67,0,0,0,443.83,58.55Z"/>
        <path class="cls-2" d="M450.23,60.17a1.62,1.62,0,0,1-.63-.57v.72h-1.74V50.41h1.74v3.5a1.94,1.94,0,0,1,.71-.53,2.31,2.31,0,0,1,1-.22,3,3,0,0,1,2.38,1,4.62,4.62,0,0,1,0,5.31,2.93,2.93,0,0,1-2.38,1A2.14,2.14,0,0,1,450.23,60.17Zm2-1.79a2.91,2.91,0,0,0,0-3.17,1.49,1.49,0,0,0-2.34,0,3,3,0,0,0,0,3.18,1.49,1.49,0,0,0,2.34,0Z"/>
        <path class="cls-2" d="M456.09,50.41h1.74v9.91h-1.74Z"/>
        <path class="cls-2" d="M466.08,57.36H461.2a1.93,1.93,0,0,0,.56,1.19,1.59,1.59,0,0,0,1.12.4,1.8,1.8,0,0,0,1-.26,2.39,2.39,0,0,0,.72-.83l1.4.52a3.21,3.21,0,0,1-3.2,2.06,3.2,3.2,0,0,1-1.91-.54,3.25,3.25,0,0,1-1.13-1.37,4.53,4.53,0,0,1-.35-1.73,4.46,4.46,0,0,1,.35-1.73,3.14,3.14,0,0,1,1.13-1.37,3.2,3.2,0,0,1,1.91-.54,3.1,3.1,0,0,1,1.84.52,3.18,3.18,0,0,1,1.1,1.32,4.13,4.13,0,0,1,.35,1.64ZM464.3,56a1.93,1.93,0,0,0-.5-1,1.37,1.37,0,0,0-1-.38,1.44,1.44,0,0,0-1,.34,1.89,1.89,0,0,0-.57,1Z"/>
      </g>
    </g>
    <g>
      <g>
        <rect class="cls-3" x="477.43" y="327.96" width="100" height="30" transform="translate(1054.86 685.92) rotate(180)"/>
        <path class="cls-2" d="M577.93,358.46h-101v-31h101Zm-100-1h99v-29h-99Z"/>
      </g>
      <g>
        <path class="cls-2" d="M495.71,337.76a4.79,4.79,0,0,1,2.25.54,4,4,0,0,1,1.67,1.63,6.16,6.16,0,0,1,0,5.47A4,4,0,0,1,498,347a4.78,4.78,0,0,1-2.25.53h-3.07v-9.8Zm1.77,7.4a3.79,3.79,0,0,0,0-5,3.78,3.78,0,0,0-2.35-.72h-.67v6.44h.67A3.78,3.78,0,0,0,497.48,345.16Z"/>
        <path class="cls-2" d="M502.13,347.12a2.09,2.09,0,0,1-.6-1.59,2,2,0,0,1,.8-1.68,3.37,3.37,0,0,1,2.15-.63h1.23v-.3a.9.9,0,0,0-.34-.78,1.49,1.49,0,0,0-.89-.26,1.18,1.18,0,0,0-1.21.81l-1.48-.33a2.28,2.28,0,0,1,.91-1.43,3,3,0,0,1,1.78-.53,3,3,0,0,1,2.19.74,2.93,2.93,0,0,1,.78,2.21v4.21H506l-.18-.89a2.66,2.66,0,0,1-2.17,1A2.19,2.19,0,0,1,502.13,347.12Zm3.11-1.33a1.29,1.29,0,0,0,.47-1.05v-.14h-1.16a1.52,1.52,0,0,0-.89.22.79.79,0,0,0-.31.69.6.6,0,0,0,.22.49.79.79,0,0,0,.56.19A1.67,1.67,0,0,0,505.24,345.79Z"/>
        <path class="cls-2" d="M510.2,347a2.58,2.58,0,0,1-.69-1.95V342h-1.09v-1.48h1.09v-1.77l1.74-1.09v2.86h1.86V342h-1.86V345a1.3,1.3,0,0,0,.23.89.84.84,0,0,0,.69.26,1.45,1.45,0,0,0,.67-.17l.41,1.4a2.71,2.71,0,0,1-1.15.25A2.61,2.61,0,0,1,510.2,347Z"/>
        <path class="cls-2" d="M514.56,347.12a2.09,2.09,0,0,1-.6-1.59,2,2,0,0,1,.8-1.68,3.39,3.39,0,0,1,2.16-.63h1.23v-.3a.91.91,0,0,0-.35-.78,1.48,1.48,0,0,0-.88-.26,1.18,1.18,0,0,0-1.22.81l-1.47-.33a2.23,2.23,0,0,1,.9-1.43,3,3,0,0,1,1.79-.53,3.07,3.07,0,0,1,2.19.74,3,3,0,0,1,.77,2.21v4.21h-1.42l-.19-.89a2.66,2.66,0,0,1-2.17,1A2.19,2.19,0,0,1,514.56,347.12Zm3.11-1.33a1.3,1.3,0,0,0,.48-1.05v-.14H517a1.5,1.5,0,0,0-.89.22.79.79,0,0,0-.32.69.6.6,0,0,0,.22.49.8.8,0,0,0,.57.19A1.64,1.64,0,0,0,517.67,345.79Z"/>
        <path class="cls-2" d="M524.08,347.41a1.59,1.59,0,0,1-.64-.57v.72H521.7v-9.91h1.74v3.5a2,2,0,0,1,.71-.53,2.31,2.31,0,0,1,1-.22,2.93,2.93,0,0,1,2.38,1,4.62,4.62,0,0,1,0,5.31,2.93,2.93,0,0,1-2.38,1A2.1,2.1,0,0,1,524.08,347.41Zm2-1.79a2.46,2.46,0,0,0,.47-1.58,2.41,2.41,0,0,0-.47-1.59,1.49,1.49,0,0,0-2.34,0,3,3,0,0,0,0,3.17,1.49,1.49,0,0,0,2.34,0Z"/>
        <path class="cls-2" d="M530.09,347.12a2.09,2.09,0,0,1-.6-1.59,2,2,0,0,1,.8-1.68,3.37,3.37,0,0,1,2.15-.63h1.23v-.3a.88.88,0,0,0-.35-.78,1.44,1.44,0,0,0-.88-.26,1.19,1.19,0,0,0-1.22.81l-1.47-.33a2.28,2.28,0,0,1,.91-1.43,3,3,0,0,1,1.78-.53,3.07,3.07,0,0,1,2.19.74,2.93,2.93,0,0,1,.78,2.21v4.21H534l-.18-.89a2.68,2.68,0,0,1-2.17,1A2.17,2.17,0,0,1,530.09,347.12Zm3.11-1.33a1.32,1.32,0,0,0,.47-1.05v-.14h-1.16a1.52,1.52,0,0,0-.89.22.79.79,0,0,0-.31.69.62.62,0,0,0,.21.49.84.84,0,0,0,.57.19A1.67,1.67,0,0,0,533.2,345.79Z"/>
        <path class="cls-2" d="M537.56,347.12a2.72,2.72,0,0,1-1-1.35L538,345a2,2,0,0,0,.55.85,1.24,1.24,0,0,0,.85.31,1,1,0,0,0,.57-.17.6.6,0,0,0,.24-.51.67.67,0,0,0-.36-.56,7.23,7.23,0,0,0-1.09-.51,3.11,3.11,0,0,1-1.24-.81,2,2,0,0,1-.16-2.25,2.11,2.11,0,0,1,.79-.72,2.41,2.41,0,0,1,1.15-.26,2.8,2.8,0,0,1,1.3.3,2.12,2.12,0,0,1,.91.84l-1,1a1.32,1.32,0,0,0-1.14-.62.81.81,0,0,0-.48.15.44.44,0,0,0-.2.38.6.6,0,0,0,.29.47,5.1,5.1,0,0,0,1.15.53,3.11,3.11,0,0,1,1.27.76,1.72,1.72,0,0,1,.45,1.22,2.14,2.14,0,0,1-.67,1.66,2.44,2.44,0,0,1-1.74.62A2.94,2.94,0,0,1,537.56,347.12Z"/>
        <path class="cls-2" d="M549.35,344.6h-4.87a2,2,0,0,0,.55,1.19,1.61,1.61,0,0,0,1.13.4,1.74,1.74,0,0,0,1-.27,2.46,2.46,0,0,0,.72-.82l1.4.52a3.19,3.19,0,0,1-3.21,2.05,3.23,3.23,0,0,1-1.91-.53,3.2,3.2,0,0,1-1.12-1.38,4.31,4.31,0,0,1,0-3.45,3.2,3.2,0,0,1,1.12-1.38,3.31,3.31,0,0,1,1.91-.53,3,3,0,0,1,2.94,1.84,4,4,0,0,1,.35,1.64Zm-1.77-1.38a1.93,1.93,0,0,0-.5-1,1.38,1.38,0,0,0-1-.38,1.43,1.43,0,0,0-1,.34,1.87,1.87,0,0,0-.58,1Z"/>
        <path class="cls-2" d="M556.37,347.09a4.26,4.26,0,0,1-1.68-1.71,6.17,6.17,0,0,1,0-5.43,4.28,4.28,0,0,1,1.68-1.72,4.73,4.73,0,0,1,2.32-.58,4.34,4.34,0,0,1,2.65.78,3.7,3.7,0,0,1,1.41,2.19l-1.64.42a2.81,2.81,0,0,0-.88-1.26,2.43,2.43,0,0,0-1.54-.45,2.8,2.8,0,0,0-1.41.37,2.55,2.55,0,0,0-1,1.12,4.1,4.1,0,0,0-.38,1.84,4,4,0,0,0,.38,1.84,2.5,2.5,0,0,0,1,1.12,2.71,2.71,0,0,0,1.41.38,2.43,2.43,0,0,0,1.54-.45,2.81,2.81,0,0,0,.88-1.26l1.64.42a3.7,3.7,0,0,1-1.41,2.19,4.33,4.33,0,0,1-2.65.77A4.73,4.73,0,0,1,556.37,347.09Z"/>
      </g>
    </g>
    <g>
      <g>
        <rect class="cls-3" x="281.76" y="327.96" width="100" height="30" transform="translate(663.52 685.92) rotate(180)"/>
        <path class="cls-2" d="M382.26,358.46h-101v-31h101Zm-100-1h99v-29h-99Z"/>
      </g>
      <g>
        <path class="cls-2" d="M300.67,337.76a4.83,4.83,0,0,1,2.26.54,4,4,0,0,1,1.67,1.63,6.16,6.16,0,0,1,0,5.47,4.08,4.08,0,0,1-1.67,1.63,4.82,4.82,0,0,1-2.26.53h-3.06v-9.8Zm1.77,7.4a3.76,3.76,0,0,0,0-5,3.75,3.75,0,0,0-2.34-.72h-.67v6.44h.67A3.75,3.75,0,0,0,302.44,345.16Z"/>
        <path class="cls-2" d="M307.1,347.12a2.09,2.09,0,0,1-.6-1.59,2,2,0,0,1,.79-1.68,3.41,3.41,0,0,1,2.16-.63h1.23v-.3a.88.88,0,0,0-.35-.78,1.46,1.46,0,0,0-.88-.26,1.19,1.19,0,0,0-1.22.81l-1.47-.33a2.28,2.28,0,0,1,.91-1.43,3,3,0,0,1,1.78-.53,3.07,3.07,0,0,1,2.19.74,2.93,2.93,0,0,1,.78,2.21v4.21H311l-.18-.89a2.68,2.68,0,0,1-2.17,1A2.17,2.17,0,0,1,307.1,347.12Zm3.11-1.33a1.32,1.32,0,0,0,.47-1.05v-.14h-1.16a1.52,1.52,0,0,0-.89.22.79.79,0,0,0-.31.69.62.62,0,0,0,.21.49.84.84,0,0,0,.57.19A1.67,1.67,0,0,0,310.21,345.79Z"/>
        <path class="cls-2" d="M315.16,347a2.61,2.61,0,0,1-.68-1.95V342h-1.1v-1.48h1.1v-1.77l1.73-1.09v2.86h1.86V342h-1.86V345a1.36,1.36,0,0,0,.23.89.88.88,0,0,0,.7.26,1.48,1.48,0,0,0,.67-.17l.4,1.4a3,3,0,0,1-3-.4Z"/>
        <path class="cls-2" d="M319.53,347.12a2.09,2.09,0,0,1-.6-1.59,2,2,0,0,1,.8-1.68,3.37,3.37,0,0,1,2.15-.63h1.23v-.3a.88.88,0,0,0-.35-.78,1.44,1.44,0,0,0-.88-.26,1.2,1.2,0,0,0-1.22.81l-1.47-.33a2.28,2.28,0,0,1,.91-1.43,3,3,0,0,1,1.78-.53,3.07,3.07,0,0,1,2.19.74,2.93,2.93,0,0,1,.78,2.21v4.21h-1.43l-.18-.89a2.66,2.66,0,0,1-2.17,1A2.19,2.19,0,0,1,319.53,347.12Zm3.11-1.33a1.29,1.29,0,0,0,.47-1.05v-.14H322a1.52,1.52,0,0,0-.89.22.79.79,0,0,0-.31.69.62.62,0,0,0,.21.49.84.84,0,0,0,.57.19A1.67,1.67,0,0,0,322.64,345.79Z"/>
        <path class="cls-2" d="M329,347.41a1.62,1.62,0,0,1-.63-.57v.72h-1.74v-9.91h1.74v3.5a1.86,1.86,0,0,1,.71-.53,2.3,2.3,0,0,1,1-.22,2.93,2.93,0,0,1,2.39,1,4.66,4.66,0,0,1,0,5.31,2.93,2.93,0,0,1-2.39,1A2.12,2.12,0,0,1,329,347.41Zm2-1.79a2.46,2.46,0,0,0,.46-1.58,2.41,2.41,0,0,0-.46-1.59,1.45,1.45,0,0,0-1.17-.57,1.42,1.42,0,0,0-1.17.57,3,3,0,0,0,0,3.17,1.42,1.42,0,0,0,1.17.57A1.45,1.45,0,0,0,331.05,345.62Z"/>
        <path class="cls-2" d="M335.06,347.12a2.26,2.26,0,0,1,.19-3.27,3.39,3.39,0,0,1,2.16-.63h1.23v-.3a.91.91,0,0,0-.35-.78,1.46,1.46,0,0,0-.88-.26,1.18,1.18,0,0,0-1.22.81l-1.47-.33a2.23,2.23,0,0,1,.9-1.43,3,3,0,0,1,1.79-.53,3.07,3.07,0,0,1,2.19.74,2.93,2.93,0,0,1,.78,2.21v4.21H339l-.18-.89a2.69,2.69,0,0,1-2.17,1A2.17,2.17,0,0,1,335.06,347.12Zm3.1-1.33a1.3,1.3,0,0,0,.48-1.05v-.14h-1.16a1.5,1.5,0,0,0-.89.22.79.79,0,0,0-.32.69.63.63,0,0,0,.22.49.8.8,0,0,0,.57.19A1.62,1.62,0,0,0,338.16,345.79Z"/>
        <path class="cls-2" d="M342.53,347.12a2.72,2.72,0,0,1-1-1.35l1.39-.74a1.93,1.93,0,0,0,.55.85,1.24,1.24,0,0,0,.85.31,1,1,0,0,0,.57-.17.6.6,0,0,0,.24-.51.67.67,0,0,0-.36-.56,7.43,7.43,0,0,0-1.1-.51,3.14,3.14,0,0,1-1.23-.81,1.92,1.92,0,0,1-.16-2.25,2.11,2.11,0,0,1,.79-.72,2.41,2.41,0,0,1,1.15-.26,2.8,2.8,0,0,1,1.3.3,2.18,2.18,0,0,1,.91.84l-1,1a1.32,1.32,0,0,0-1.14-.62.78.78,0,0,0-.48.15.42.42,0,0,0-.2.38.58.58,0,0,0,.29.47,5.1,5.1,0,0,0,1.15.53,3.18,3.18,0,0,1,1.27.76,1.72,1.72,0,0,1,.45,1.22,2.14,2.14,0,0,1-.67,1.66,2.44,2.44,0,0,1-1.74.62A2.92,2.92,0,0,1,342.53,347.12Z"/>
        <path class="cls-2" d="M354.32,344.6h-4.87a2,2,0,0,0,.55,1.19,1.59,1.59,0,0,0,1.13.4,1.69,1.69,0,0,0,1-.27,2.38,2.38,0,0,0,.73-.82l1.4.52a3.46,3.46,0,0,1-1.22,1.52,3.39,3.39,0,0,1-2,.53,3.09,3.09,0,0,1-3-1.91,4.31,4.31,0,0,1,0-3.45,3.2,3.2,0,0,1,1.12-1.38,3.29,3.29,0,0,1,1.91-.53,3,3,0,0,1,2.94,1.84,4.13,4.13,0,0,1,.35,1.64Zm-1.78-1.38a1.85,1.85,0,0,0-.5-1,1.34,1.34,0,0,0-1-.38,1.45,1.45,0,0,0-1,.34,1.86,1.86,0,0,0-.57,1Z"/>
        <path class="cls-2" d="M363.08,337.76a3,3,0,0,1,2.05.68,2.49,2.49,0,0,1,.75,2,2.26,2.26,0,0,1-.25,1.08,1.55,1.55,0,0,1-.71.72,2.35,2.35,0,0,1,1.47,2.4,2.78,2.78,0,0,1-.86,2.18,3.43,3.43,0,0,1-2.38.77H359.5v-9.8Zm.77,3.57a1,1,0,0,0,.28-.82,1,1,0,0,0-.29-.82,1.42,1.42,0,0,0-.9-.25h-1.62v2.13H363A1.32,1.32,0,0,0,363.85,341.33Zm.34,4.22a1.26,1.26,0,0,0,.38-1,1.24,1.24,0,0,0-.38-1,1.74,1.74,0,0,0-1.2-.34h-1.67v2.63H363A1.79,1.79,0,0,0,364.19,345.55Z"/>
      </g>
    </g>
    <g>
      <g>
        <rect class="cls-3" x="88.63" y="327.96" width="100" height="30" transform="translate(277.26 685.92) rotate(180)"/>
        <path class="cls-2" d="M189.13,358.46h-101v-31h101Zm-100-1h99v-29h-99Z"/>
      </g>
      <g>
        <path class="cls-2" d="M107.6,337.76a4.79,4.79,0,0,1,2.25.54,4,4,0,0,1,1.68,1.63,6.16,6.16,0,0,1,0,5.47,4.11,4.11,0,0,1-1.68,1.63,4.78,4.78,0,0,1-2.25.53h-3.06v-9.8Zm1.77,7.4a3.76,3.76,0,0,0,0-5,3.75,3.75,0,0,0-2.34-.72h-.68v6.44H107A3.75,3.75,0,0,0,109.37,345.16Z"/>
        <path class="cls-2" d="M114,347.12a2.26,2.26,0,0,1,.19-3.27,3.39,3.39,0,0,1,2.16-.63h1.23v-.3a.91.91,0,0,0-.35-.78,1.46,1.46,0,0,0-.88-.26,1.19,1.19,0,0,0-1.22.81l-1.47-.33a2.23,2.23,0,0,1,.9-1.43,3,3,0,0,1,1.79-.53,3.07,3.07,0,0,1,2.19.74,2.93,2.93,0,0,1,.78,2.21v4.21h-1.43l-.18-.89a2.68,2.68,0,0,1-2.17,1A2.17,2.17,0,0,1,114,347.12Zm3.1-1.33a1.3,1.3,0,0,0,.48-1.05v-.14h-1.16a1.52,1.52,0,0,0-.89.22.79.79,0,0,0-.31.69.62.62,0,0,0,.21.49.84.84,0,0,0,.57.19A1.62,1.62,0,0,0,117.13,345.79Z"/>
        <path class="cls-2" d="M122.09,347a2.58,2.58,0,0,1-.69-1.95V342h-1.09v-1.48h1.09v-1.77l1.74-1.09v2.86H125V342h-1.86V345a1.36,1.36,0,0,0,.23.89.87.87,0,0,0,.69.26,1.49,1.49,0,0,0,.68-.17l.4,1.4a3,3,0,0,1-3-.4Z"/>
        <path class="cls-2" d="M126.46,347.12a2.09,2.09,0,0,1-.6-1.59,2,2,0,0,1,.79-1.68,3.42,3.42,0,0,1,2.16-.63H130v-.3a.88.88,0,0,0-.35-.78,1.44,1.44,0,0,0-.88-.26,1.19,1.19,0,0,0-1.22.81l-1.47-.33a2.24,2.24,0,0,1,.91-1.43,3,3,0,0,1,1.78-.53,3.07,3.07,0,0,1,2.19.74,2.93,2.93,0,0,1,.78,2.21v4.21h-1.43l-.18-.89a2.68,2.68,0,0,1-2.17,1A2.17,2.17,0,0,1,126.46,347.12Zm3.11-1.33a1.32,1.32,0,0,0,.47-1.05v-.14h-1.16a1.52,1.52,0,0,0-.89.22.79.79,0,0,0-.31.69.62.62,0,0,0,.21.49.84.84,0,0,0,.57.19A1.67,1.67,0,0,0,129.57,345.79Z"/>
        <path class="cls-2" d="M136,347.41a1.74,1.74,0,0,1-.64-.57v.72H133.6v-9.91h1.73v3.5a2,2,0,0,1,.72-.53,2.3,2.3,0,0,1,1-.22,3,3,0,0,1,2.39,1,4.66,4.66,0,0,1,0,5.31,3,3,0,0,1-2.39,1A2.1,2.1,0,0,1,136,347.41Zm2-1.79a2.46,2.46,0,0,0,.46-1.58,2.41,2.41,0,0,0-.46-1.59,1.45,1.45,0,0,0-1.18-.57,1.42,1.42,0,0,0-1.16.57,3,3,0,0,0,0,3.17,1.42,1.42,0,0,0,1.16.57A1.45,1.45,0,0,0,138,345.62Z"/>
        <path class="cls-2" d="M142,347.12a2.09,2.09,0,0,1-.6-1.59,2,2,0,0,1,.8-1.68,3.39,3.39,0,0,1,2.16-.63h1.23v-.3a.91.91,0,0,0-.35-.78,1.46,1.46,0,0,0-.88-.26,1.18,1.18,0,0,0-1.22.81l-1.47-.33a2.23,2.23,0,0,1,.9-1.43,3,3,0,0,1,1.79-.53,3.07,3.07,0,0,1,2.19.74,2.93,2.93,0,0,1,.77,2.21v4.21h-1.42l-.19-.89a2.66,2.66,0,0,1-2.17,1A2.2,2.2,0,0,1,142,347.12Zm3.11-1.33a1.3,1.3,0,0,0,.48-1.05v-.14h-1.16a1.5,1.5,0,0,0-.89.22.79.79,0,0,0-.32.69.6.6,0,0,0,.22.49.8.8,0,0,0,.57.19A1.62,1.62,0,0,0,145.09,345.79Z"/>
        <path class="cls-2" d="M149.45,347.12a2.7,2.7,0,0,1-1-1.35l1.39-.74a1.93,1.93,0,0,0,.55.85,1.24,1.24,0,0,0,.85.31,1,1,0,0,0,.57-.17.6.6,0,0,0,.24-.51.66.66,0,0,0-.37-.56,6.78,6.78,0,0,0-1.09-.51,3.26,3.26,0,0,1-1.24-.81,1.84,1.84,0,0,1-.44-1.26,1.79,1.79,0,0,1,.29-1,2,2,0,0,1,.79-.72,2.41,2.41,0,0,1,1.15-.26,2.83,2.83,0,0,1,1.3.3,2.18,2.18,0,0,1,.91.84l-1,1a1.3,1.3,0,0,0-1.13-.62.76.76,0,0,0-.48.15.43.43,0,0,0-.21.38.59.59,0,0,0,.3.47,4.89,4.89,0,0,0,1.15.53,3.18,3.18,0,0,1,1.27.76,1.72,1.72,0,0,1,.45,1.22,2.18,2.18,0,0,1-.67,1.66,2.44,2.44,0,0,1-1.74.62A3,3,0,0,1,149.45,347.12Z"/>
        <path class="cls-2" d="M161.25,344.6h-4.87a2,2,0,0,0,.55,1.19,1.59,1.59,0,0,0,1.13.4,1.69,1.69,0,0,0,1-.27,2.26,2.26,0,0,0,.72-.82l1.4.52a3.19,3.19,0,0,1-3.2,2.05,3.09,3.09,0,0,1-3-1.91,4.31,4.31,0,0,1,0-3.45,3.2,3.2,0,0,1,1.12-1.38,3.29,3.29,0,0,1,1.91-.53,3,3,0,0,1,2.94,1.84,4.13,4.13,0,0,1,.35,1.64Zm-1.78-1.38a1.85,1.85,0,0,0-.5-1,1.34,1.34,0,0,0-1-.38,1.44,1.44,0,0,0-1,.34,1.86,1.86,0,0,0-.57,1Z"/>
        <path class="cls-2" d="M168.77,337.76h1.82l3.31,9.8h-2l-.71-2.31h-3.11l-.71,2.31h-2Zm1.94,5.81-1-3.4-1,3.4Z"/>
      </g>
    </g>
    <g>
      <g>
        <rect class="cls-4" x="106.52" y="450.5" width="71" height="29"/>
        <path class="cls-2" d="M177,451v28H107V451h70m1-1H106v30h72V450Z"/>
      </g>
      <g>
        <path class="cls-2" d="M120.05,469.35a3.3,3.3,0,0,1-1.17-1,3.65,3.65,0,0,1-.63-1.39l1.47-.92a3.48,3.48,0,0,0,.71,1.44,1.59,1.59,0,0,0,1.24.54,1.4,1.4,0,0,0,.92-.28,1.06,1.06,0,0,0,.36-.88,1,1,0,0,0-.24-.64,2.25,2.25,0,0,0-.6-.49c-.24-.14-.57-.32-1-.53l-.41-.2a3.78,3.78,0,0,1-1.34-1.06,2.5,2.5,0,0,1-.51-1.63,2.65,2.65,0,0,1,.35-1.34,2.44,2.44,0,0,1,1-1,2.9,2.9,0,0,1,1.42-.34,2.73,2.73,0,0,1,2.77,1.78l-1.46.94a1.34,1.34,0,0,0-1.31-1,1,1,0,0,0-.7.26.82.82,0,0,0-.29.64,1,1,0,0,0,.26.66,2.22,2.22,0,0,0,.63.49c.24.14.6.31,1.07.53a7,7,0,0,1,1.15.65,2.62,2.62,0,0,1,.77.88,2.67,2.67,0,0,1,.3,1.31,3,3,0,0,1-.39,1.55,2.7,2.7,0,0,1-1.12,1,3.51,3.51,0,0,1-1.62.35A3.46,3.46,0,0,1,120.05,469.35Z"/>
        <path class="cls-2" d="M128,459.69v4a2.67,2.67,0,0,1,.93-.9,2.52,2.52,0,0,1,1.31-.35,2.29,2.29,0,0,1,1.61.54,2.06,2.06,0,0,1,.58,1.59v5h-1.73v-4.42a1.46,1.46,0,0,0-.26-.95,1,1,0,0,0-.79-.31,1.31,1.31,0,0,0-.8.29,2,2,0,0,0-.61.9,4.08,4.08,0,0,0-.24,1.51v3h-1.74v-9.91Z"/>
        <path class="cls-2" d="M134.37,469.15a2.27,2.27,0,0,1,.19-3.26,3.42,3.42,0,0,1,2.16-.63H138V465a.88.88,0,0,0-.35-.77,1.44,1.44,0,0,0-.88-.26,1.19,1.19,0,0,0-1.22.81l-1.47-.34a2.24,2.24,0,0,1,.91-1.42,2.92,2.92,0,0,1,1.78-.54,3,3,0,0,1,2.19.75,2.93,2.93,0,0,1,.78,2.21v4.21h-1.43l-.18-.89a2.68,2.68,0,0,1-2.17,1A2.13,2.13,0,0,1,134.37,469.15Zm3.11-1.32a1.32,1.32,0,0,0,.47-1.06v-.14h-1.16a1.52,1.52,0,0,0-.89.23.78.78,0,0,0-.31.68.63.63,0,0,0,.21.5.84.84,0,0,0,.57.19A1.67,1.67,0,0,0,137.48,467.83Z"/>
        <path class="cls-2" d="M143.19,462.55v1.14a2.82,2.82,0,0,1,.92-.93,2.22,2.22,0,0,1,1.16-.33,3.08,3.08,0,0,1,.86.14l-.32,1.61a1.4,1.4,0,0,0-.73-.19,1.62,1.62,0,0,0-1.36.75,4.16,4.16,0,0,0-.53,2.36v2.5h-1.74v-7.05Z"/>
        <path class="cls-2" d="M147.38,468.73a4.81,4.81,0,0,1,0-5.31,3,3,0,0,1,3.37-.77,1.86,1.86,0,0,1,.75.54v-3.5h1.74v9.91H151.5v-.73a1.49,1.49,0,0,1-.66.59,2.57,2.57,0,0,1-1.18.25A2.77,2.77,0,0,1,147.38,468.73Zm3.82-1.07a3,3,0,0,0,0-3.17,1.42,1.42,0,0,0-1.17-.57,1.45,1.45,0,0,0-1.17.57,2.4,2.4,0,0,0-.46,1.58,2.47,2.47,0,0,0,.46,1.59,1.45,1.45,0,0,0,1.17.57A1.42,1.42,0,0,0,151.2,467.66Z"/>
        <path class="cls-2" d="M161.15,459.8H163l3.32,9.8h-2l-.72-2.31h-3.1l-.72,2.31h-2Zm1.95,5.81-1-3.4-1,3.4Z"/>
      </g>
    </g>
    <g>
      <g>
        <rect class="cls-4" x="301.91" y="450.5" width="71" height="29"/>
        <path class="cls-2" d="M372.41,451v28h-70V451h70m1-1h-72v30h72V450Z"/>
      </g>
      <g>
        <path class="cls-2" d="M315.48,469.35a3.3,3.3,0,0,1-1.17-1,3.65,3.65,0,0,1-.63-1.39l1.47-.92a3.48,3.48,0,0,0,.71,1.44,1.59,1.59,0,0,0,1.24.54,1.4,1.4,0,0,0,.92-.28,1.06,1.06,0,0,0,.36-.88,1,1,0,0,0-.24-.64,2.25,2.25,0,0,0-.6-.49c-.24-.14-.58-.32-1-.53l-.41-.2a3.78,3.78,0,0,1-1.34-1.06,2.5,2.5,0,0,1-.51-1.63,2.65,2.65,0,0,1,.35-1.34,2.44,2.44,0,0,1,1-1,2.9,2.9,0,0,1,1.42-.34,2.73,2.73,0,0,1,2.77,1.78l-1.47.94a1.32,1.32,0,0,0-1.3-1,1,1,0,0,0-.7.26.82.82,0,0,0-.29.64.92.92,0,0,0,.26.66,2.22,2.22,0,0,0,.63.49c.24.14.6.31,1.07.53a7,7,0,0,1,1.15.65,2.62,2.62,0,0,1,.77.88,2.67,2.67,0,0,1,.3,1.31,3,3,0,0,1-.39,1.55,2.7,2.7,0,0,1-1.12,1,3.51,3.51,0,0,1-1.62.35A3.46,3.46,0,0,1,315.48,469.35Z"/>
        <path class="cls-2" d="M323.39,459.69v4a2.67,2.67,0,0,1,.93-.9,2.52,2.52,0,0,1,1.31-.35,2.31,2.31,0,0,1,1.61.54,2.06,2.06,0,0,1,.58,1.59v5h-1.73v-4.42a1.46,1.46,0,0,0-.26-.95,1,1,0,0,0-.79-.31,1.31,1.31,0,0,0-.8.29,2.15,2.15,0,0,0-.62.9,4.32,4.32,0,0,0-.23,1.51v3h-1.74v-9.91Z"/>
        <path class="cls-2" d="M329.8,469.15a2.27,2.27,0,0,1,.19-3.26,3.42,3.42,0,0,1,2.16-.63h1.23V465a.88.88,0,0,0-.35-.77,1.46,1.46,0,0,0-.88-.26,1.19,1.19,0,0,0-1.22.81l-1.47-.34a2.24,2.24,0,0,1,.91-1.42,2.92,2.92,0,0,1,1.78-.54,3,3,0,0,1,2.19.75,2.93,2.93,0,0,1,.78,2.21v4.21h-1.43l-.18-.89a2.68,2.68,0,0,1-2.17,1A2.13,2.13,0,0,1,329.8,469.15Zm3.11-1.32a1.32,1.32,0,0,0,.47-1.06v-.14h-1.16a1.52,1.52,0,0,0-.89.23.78.78,0,0,0-.31.68.63.63,0,0,0,.21.5.84.84,0,0,0,.57.19A1.67,1.67,0,0,0,332.91,467.83Z"/>
        <path class="cls-2" d="M338.62,462.55v1.14a2.82,2.82,0,0,1,.92-.93,2.22,2.22,0,0,1,1.16-.33,3.08,3.08,0,0,1,.86.14l-.32,1.61a1.4,1.4,0,0,0-.73-.19,1.6,1.6,0,0,0-1.36.75,4.16,4.16,0,0,0-.53,2.36v2.5h-1.74v-7.05Z"/>
        <path class="cls-2" d="M342.81,468.73a4.81,4.81,0,0,1,0-5.31,3,3,0,0,1,3.37-.77,1.86,1.86,0,0,1,.75.54v-3.5h1.74v9.91h-1.74v-.73a1.49,1.49,0,0,1-.66.59,2.57,2.57,0,0,1-1.18.25A2.77,2.77,0,0,1,342.81,468.73Zm3.82-1.07a3,3,0,0,0,0-3.17,1.42,1.42,0,0,0-1.17-.57,1.45,1.45,0,0,0-1.17.57,2.4,2.4,0,0,0-.46,1.58,2.47,2.47,0,0,0,.46,1.59,1.45,1.45,0,0,0,1.17.57A1.42,1.42,0,0,0,346.63,467.66Z"/>
        <path class="cls-2" d="M357.83,459.8a3,3,0,0,1,2,.67,2.53,2.53,0,0,1,.76,2,2.27,2.27,0,0,1-.26,1.08,1.5,1.5,0,0,1-.71.72,2.35,2.35,0,0,1,1.47,2.4,2.78,2.78,0,0,1-.86,2.18,3.4,3.4,0,0,1-2.37.77h-3.66v-9.8Zm.76,3.57a1,1,0,0,0,.29-.82,1,1,0,0,0-.3-.82,1.31,1.31,0,0,0-.89-.25h-1.63v2.13h1.67A1.32,1.32,0,0,0,358.59,463.37Zm.34,4.22a1.26,1.26,0,0,0,.38-1,1.24,1.24,0,0,0-.38-1,1.74,1.74,0,0,0-1.2-.34h-1.67v2.63h1.67A1.79,1.79,0,0,0,358.93,467.59Z"/>
      </g>
    </g>
    <g>
      <g>
        <rect class="cls-4" x="499.55" y="450.5" width="71" height="29"/>
        <path class="cls-2" d="M570.05,451v28h-70V451h70m1-1h-72v30h72V450Z"/>
      </g>
      <g>
        <path class="cls-2" d="M512.49,469.35a3.3,3.3,0,0,1-1.17-1,3.5,3.5,0,0,1-.63-1.39l1.47-.92a3.48,3.48,0,0,0,.71,1.44,1.59,1.59,0,0,0,1.24.54,1.4,1.4,0,0,0,.92-.28,1.06,1.06,0,0,0,.35-.88,1,1,0,0,0-.23-.64,2.25,2.25,0,0,0-.6-.49c-.24-.14-.58-.32-1-.53l-.41-.2a3.78,3.78,0,0,1-1.34-1.06,2.5,2.5,0,0,1-.51-1.63,2.75,2.75,0,0,1,.34-1.34,2.53,2.53,0,0,1,1-1,2.9,2.9,0,0,1,1.42-.34,2.73,2.73,0,0,1,2.77,1.78l-1.47.94a1.32,1.32,0,0,0-1.3-1,1,1,0,0,0-.7.26.82.82,0,0,0-.29.64.92.92,0,0,0,.26.66,2.22,2.22,0,0,0,.63.49c.24.14.6.31,1.07.53a7,7,0,0,1,1.15.65,2.62,2.62,0,0,1,.77.88,2.67,2.67,0,0,1,.3,1.31,3,3,0,0,1-.39,1.55,2.7,2.7,0,0,1-1.12,1,3.54,3.54,0,0,1-1.62.35A3.43,3.43,0,0,1,512.49,469.35Z"/>
        <path class="cls-2" d="M520.4,459.69v4a2.67,2.67,0,0,1,.93-.9,2.49,2.49,0,0,1,1.31-.35,2.31,2.31,0,0,1,1.61.54,2.06,2.06,0,0,1,.58,1.59v5H523.1v-4.42a1.46,1.46,0,0,0-.26-.95,1,1,0,0,0-.79-.31,1.31,1.31,0,0,0-.8.29,2.15,2.15,0,0,0-.62.9,4.32,4.32,0,0,0-.23,1.51v3h-1.74v-9.91Z"/>
        <path class="cls-2" d="M526.81,469.15a2.27,2.27,0,0,1,.19-3.26,3.41,3.41,0,0,1,2.16-.63h1.23V465a.88.88,0,0,0-.35-.77,1.46,1.46,0,0,0-.88-.26,1.19,1.19,0,0,0-1.22.81l-1.47-.34a2.2,2.2,0,0,1,.91-1.42,2.92,2.92,0,0,1,1.78-.54,3,3,0,0,1,2.19.75,2.93,2.93,0,0,1,.78,2.21v4.21H530.7l-.18-.89a2.68,2.68,0,0,1-2.17,1A2.13,2.13,0,0,1,526.81,469.15Zm3.11-1.32a1.32,1.32,0,0,0,.47-1.06v-.14h-1.16a1.52,1.52,0,0,0-.89.23.78.78,0,0,0-.31.68.63.63,0,0,0,.21.5.84.84,0,0,0,.57.19A1.67,1.67,0,0,0,529.92,467.83Z"/>
        <path class="cls-2" d="M535.63,462.55v1.14a2.82,2.82,0,0,1,.92-.93,2.22,2.22,0,0,1,1.16-.33,3.08,3.08,0,0,1,.86.14l-.32,1.61a1.4,1.4,0,0,0-.73-.19,1.6,1.6,0,0,0-1.36.75,4.16,4.16,0,0,0-.53,2.36v2.5h-1.74v-7.05Z"/>
        <path class="cls-2" d="M539.82,468.73a4.81,4.81,0,0,1,0-5.31,2.78,2.78,0,0,1,2.28-1,2.84,2.84,0,0,1,1.1.22,1.9,1.9,0,0,1,.74.54v-3.5h1.74v9.91h-1.74v-.73a1.49,1.49,0,0,1-.66.59,2.57,2.57,0,0,1-1.18.25A2.77,2.77,0,0,1,539.82,468.73Zm3.82-1.07a3,3,0,0,0,0-3.17,1.42,1.42,0,0,0-1.17-.57,1.45,1.45,0,0,0-1.17.57,2.4,2.4,0,0,0-.46,1.58,2.47,2.47,0,0,0,.46,1.59,1.45,1.45,0,0,0,1.17.57A1.42,1.42,0,0,0,543.64,467.66Z"/>
        <path class="cls-2" d="M553.09,469.13a4.26,4.26,0,0,1-1.68-1.71,6.17,6.17,0,0,1,0-5.43,4.28,4.28,0,0,1,1.68-1.72,4.73,4.73,0,0,1,2.32-.58,4.34,4.34,0,0,1,2.65.78,3.7,3.7,0,0,1,1.41,2.19l-1.64.42a2.81,2.81,0,0,0-.88-1.26,2.43,2.43,0,0,0-1.54-.45,2.7,2.7,0,0,0-1.41.37,2.55,2.55,0,0,0-1,1.12,4.64,4.64,0,0,0,0,3.68,2.5,2.5,0,0,0,1,1.12,2.7,2.7,0,0,0,1.41.37,2.49,2.49,0,0,0,1.54-.44,2.81,2.81,0,0,0,.88-1.26l1.64.42a3.7,3.7,0,0,1-1.41,2.19,4.33,4.33,0,0,1-2.65.77A4.73,4.73,0,0,1,553.09,469.13Z"/>
      </g>
    </g>
    <g>
      <g>
        <g>
          <path class="cls-4" d="M194.82,187.55c-17.12,0-33-1.67-40.42-4.24-4.14-.74-4.14-2.14-4.14-2.6V161.35h89.12v19.38c0,.44,0,1.81-4,2.54C227.89,185.87,212,187.55,194.82,187.55Z"/>
          <path class="cls-2" d="M238.87,161.85v18.61l1,.12-1-.05v.21h0c0,.93-1.23,1.61-3.58,2l-.08,0-.07,0c-7.36,2.57-23.19,4.24-40.32,4.24s-32.87-1.66-40.26-4.22l-.08,0-.07,0c-2.4-.42-3.62-1.11-3.65-2,0,0,0-.07,0-.1v-18.8h88.11m1-1H149.76V180.5s0,.07,0,.11,0,.07,0,.1c0,1.63,1.61,2.56,4.47,3.07,7.29,2.52,22.73,4.27,40.59,4.27s33.38-1.76,40.65-4.29c2.82-.51,4.4-1.44,4.4-3V160.85Z"/>
        </g>
        <g>
          <path class="cls-4" d="M194.82,167.86c-26.26,0-44.56-3.71-44.56-7.05s18.3-7,44.56-7,44.56,3.71,44.56,7S221.08,167.86,194.82,167.86Z"/>
          <path class="cls-2" d="M194.82,154.27a202.83,202.83,0,0,1,31.69,2.19c12.22,2,12.36,4.33,12.36,4.35s-.14,2.31-12.36,4.35a201.49,201.49,0,0,1-31.69,2.2,201.72,201.72,0,0,1-31.7-2.2c-12.22-2-12.36-4.32-12.36-4.35s.14-2.3,12.36-4.35a203.06,203.06,0,0,1,31.7-2.19m0-1c-24.89,0-45.06,3.37-45.06,7.54s20.17,7.55,45.06,7.55,45.05-3.38,45.05-7.55-20.17-7.54-45.05-7.54Z"/>
        </g>
      </g>
      <g>
        <g>
          <path class="cls-4" d="M194.82,167.66c-17.12,0-33-1.66-40.42-4.23-4.14-.74-4.14-2.14-4.14-2.6V141.47h89.12v19.38c0,.43,0,1.81-4,2.53C227.89,166,212,167.66,194.82,167.66Z"/>
          <path class="cls-2" d="M238.87,142v18.61l1,.12-1-.06v.22h0c0,.92-1.23,1.61-3.58,2l-.08,0-.07,0c-7.36,2.57-23.19,4.23-40.32,4.23S162,165.51,154.56,163l-.08,0-.07,0c-2.4-.42-3.62-1.11-3.65-2,0,0,0-.06,0-.09V142h88.11m1-1H149.76v19.65s0,.07,0,.11,0,.07,0,.1c0,1.63,1.61,2.56,4.47,3.07,7.29,2.52,22.73,4.26,40.59,4.26s33.38-1.75,40.65-4.28c2.82-.51,4.4-1.45,4.4-3V141Z"/>
        </g>
        <g>
          <path class="cls-4" d="M194.82,148c-26.26,0-44.56-3.71-44.56-7s18.3-7.05,44.56-7.05,44.56,3.72,44.56,7.05S221.08,148,194.82,148Z"/>
          <path class="cls-2" d="M194.82,134.38a201.49,201.49,0,0,1,31.69,2.2c12.22,2,12.36,4.33,12.36,4.35s-.14,2.31-12.36,4.35a201.49,201.49,0,0,1-31.69,2.2,201.72,201.72,0,0,1-31.7-2.2c-12.22-2-12.36-4.33-12.36-4.35s.14-2.3,12.36-4.35a201.72,201.72,0,0,1,31.7-2.2m0-1c-24.89,0-45.06,3.38-45.06,7.55s20.17,7.55,45.06,7.55,45.05-3.38,45.05-7.55-20.17-7.55-45.05-7.55Z"/>
        </g>
      </g>
      <g>
        <g>
          <path class="cls-4" d="M194.82,147.78c-17.12,0-33-1.66-40.42-4.24-4.14-.73-4.14-2.13-4.14-2.59V121.59h89.12V141c0,.43,0,1.81-4,2.53C227.89,146.11,212,147.78,194.82,147.78Z"/>
          <path class="cls-2" d="M238.87,122.09V140.7l1,.11-1-.05V141h0c0,.92-1.23,1.6-3.58,2h-.08l-.07,0c-7.36,2.57-23.19,4.23-40.32,4.23s-32.87-1.65-40.26-4.21l-.08,0-.07,0c-2.4-.42-3.62-1.11-3.65-2.05,0,0,0-.06,0-.09v-18.8h88.11m1-1H149.76v19.64s0,.08,0,.12,0,.06,0,.1c0,1.63,1.61,2.56,4.47,3.07,7.29,2.52,22.73,4.26,40.59,4.26s33.38-1.75,40.65-4.29c2.82-.51,4.4-1.44,4.4-3V121.09Z"/>
        </g>
        <g>
          <path class="cls-4" d="M194.82,128.1c-26.26,0-44.56-3.72-44.56-7s18.3-7,44.56-7,44.56,3.72,44.56,7S221.08,128.1,194.82,128.1Z"/>
          <path class="cls-2" d="M194.82,114.5a201.49,201.49,0,0,1,31.69,2.2c12.22,2,12.36,4.33,12.36,4.35s-.14,2.3-12.36,4.35a201.49,201.49,0,0,1-31.69,2.2,201.72,201.72,0,0,1-31.7-2.2c-12.22-2.05-12.36-4.33-12.36-4.35s.14-2.3,12.36-4.35a201.72,201.72,0,0,1,31.7-2.2m0-1c-24.89,0-45.06,3.38-45.06,7.55s20.17,7.55,45.06,7.55,45.05-3.38,45.05-7.55-20.17-7.55-45.05-7.55Z"/>
        </g>
      </g>
    </g>
    <g>
      <g>
        <g>
          <path class="cls-4" d="M65.23,414.4c-9.61,0-18.51-.93-22.67-2.38-2.18-.38-2.18-1-2.18-1.25V400.1h49.7v10.7c0,.18,0,.82-2.07,1.19C83.79,413.46,74.88,414.4,65.23,414.4Z"/>
          <path class="cls-2" d="M89.58,400.6v10h0v.16c0,.22-.55.51-1.66.71l-.08,0-.07,0c-4.1,1.43-13,2.36-22.54,2.36s-18.39-.92-22.5-2.35l-.08,0-.08,0c-1.12-.2-1.65-.5-1.68-.71h0V400.6h48.7m1-1H39.88v11s0,0,0,.06,0,0,0,.06c0,.92.91,1.44,2.52,1.73,4.1,1.42,12.78,2.4,22.83,2.4s18.78-1,22.87-2.41c1.59-.29,2.48-.82,2.48-1.72,0,0,0,0,0-.06a.13.13,0,0,0,0-.06v-11Z"/>
        </g>
        <g>
          <path class="cls-4" d="M65.23,403.32c-17.7,0-24.85-2.64-24.85-3.74s7.15-3.75,24.85-3.75,24.85,2.64,24.85,3.75S82.93,403.32,65.23,403.32Z"/>
          <path class="cls-2" d="M65.23,396.33c14.73,0,23.33,2,24.31,3.25-1,1.21-9.58,3.24-24.31,3.24s-23.33-2-24.3-3.24c1-1.21,9.57-3.25,24.3-3.25m0-1c-14,0-25.35,1.9-25.35,4.25s11.35,4.24,25.35,4.24,25.35-1.9,25.35-4.24-11.35-4.25-25.35-4.25Z"/>
        </g>
      </g>
      <g>
        <g>
          <path class="cls-4" d="M65.23,403.21c-9.61,0-18.51-.93-22.67-2.37-2.18-.39-2.18-1-2.18-1.25V388.92h49.7v10.69c0,.19,0,.82-2.07,1.2C83.79,402.28,74.88,403.21,65.23,403.21Z"/>
          <path class="cls-2" d="M89.58,389.42v10h0v.16c0,.21-.55.51-1.66.71h-.08l-.07,0c-4.1,1.43-13,2.35-22.54,2.35s-18.39-.92-22.5-2.34l-.08,0h-.08c-1.12-.2-1.65-.5-1.68-.72h0V389.42h48.7m1-1H39.88v11.05s0,0,0,.06,0,0,0,.06c0,.91.91,1.44,2.52,1.72,4.1,1.42,12.78,2.4,22.83,2.4s18.78-1,22.87-2.41c1.59-.29,2.48-.81,2.48-1.71,0,0,0,0,0-.06a.13.13,0,0,0,0-.06V388.42Z"/>
        </g>
        <g>
          <path class="cls-4" d="M65.23,392.14c-17.7,0-24.85-2.64-24.85-3.75s7.15-3.74,24.85-3.74,24.85,2.64,24.85,3.74S82.93,392.14,65.23,392.14Z"/>
          <path class="cls-2" d="M65.23,385.15c14.73,0,23.33,2,24.31,3.24-1,1.21-9.58,3.25-24.31,3.25s-23.33-2-24.3-3.25c1-1.21,9.57-3.24,24.3-3.24m0-1c-14,0-25.35,1.9-25.35,4.24s11.35,4.25,25.35,4.25,25.35-1.9,25.35-4.25-11.35-4.24-25.35-4.24Z"/>
        </g>
      </g>
      <g>
        <g>
          <path class="cls-4" d="M65.23,392c-9.61,0-18.51-.93-22.67-2.37-2.18-.4-2.18-1-2.18-1.26V377.73h49.7v10.7c0,.18,0,.82-2.07,1.19C83.79,391.09,74.88,392,65.23,392Z"/>
          <path class="cls-2" d="M89.58,378.23v10h0v.16c0,.22-.55.51-1.66.71l-.08,0-.07,0c-4.1,1.43-13,2.36-22.54,2.36s-18.39-.92-22.5-2.35l-.08,0-.08,0c-1.12-.2-1.65-.49-1.68-.71h0V378.23h48.7m1-1H39.88v11s0,0,0,.06,0,0,0,.06c0,.92.91,1.44,2.52,1.73,4.1,1.42,12.78,2.4,22.83,2.4s18.78-1,22.87-2.41c1.59-.29,2.48-.82,2.48-1.72,0,0,0,0,0-.06a.13.13,0,0,0,0-.06v-11Z"/>
        </g>
        <g>
          <path class="cls-4" d="M65.23,381c-17.7,0-24.85-2.64-24.85-3.74s7.15-3.75,24.85-3.75,24.85,2.65,24.85,3.75S82.93,381,65.23,381Z"/>
          <path class="cls-2" d="M65.23,374c14.73,0,23.33,2,24.31,3.25-1,1.21-9.58,3.24-24.31,3.24s-23.33-2-24.3-3.24c1-1.21,9.57-3.25,24.3-3.25m0-1c-14,0-25.35,1.9-25.35,4.25s11.35,4.24,25.35,4.24,25.35-1.9,25.35-4.24S79.23,373,65.23,373Z"/>
        </g>
      </g>
    </g>
    <g>
      <path class="cls-2" d="M319.8,309.42a.5.5,0,0,1-.5-.5V279.05a.5.5,0,0,1,1,0v29.87A.5.5,0,0,1,319.8,309.42Z"/>
      <path class="cls-2" d="M319.77,310.05h0a.51.51,0,0,1-.35-.15l-10.27-10.73a.5.5,0,0,1,0-.71.49.49,0,0,1,.7,0l9.93,10.36,10.36-9.92a.5.5,0,0,1,.71,0,.49.49,0,0,1,0,.7l-10.72,10.27A.52.52,0,0,1,319.77,310.05Z"/>
    </g>
    <g>
      <rect class="cls-3" x="324.14" y="88.7" width="35.56" height="23.58" transform="translate(683.83 200.99) rotate(180)"/>
      <path class="cls-5" d="M360.19,112.79H323.63V88.2h36.56Zm-35.56-1h34.56V89.2H324.63Z"/>
    </g>
    <g>
      <rect class="cls-3" x="359.69" y="88.7" width="103.77" height="23.58" transform="translate(823.15 200.99) rotate(180)"/>
      <path class="cls-5" d="M464,112.79H359.19V88.2H464Zm-103.77-1H463V89.2H360.19Z"/>
    </g>
    <g>
      <path class="cls-2" d="M334.58,96.35H340v1.42h-1.89v5.14H340v1.42h-5.44v-1.42h1.9V97.77h-1.9Z"/>
      <path class="cls-2" d="M343.57,96.35c2.17,0,3.85.94,3.85,4s-1.71,4-3.89,4H341.7v-8Zm-.08,1.35h-.14V103h.14c1.35,0,2.18-.54,2.18-2.64S344.84,97.7,343.49,97.7Z"/>
    </g>
    <g>
      <path class="cls-2" d="M389.81,96.35c1.83,0,3.09.6,3.09,2.46s-1.26,2.42-3.09,2.42H389v3.1h-1.65v-8ZM389,97.7v2.21h.77c.76,0,1.37-.26,1.37-1.1s-.61-1.11-1.37-1.11Z"/>
      <path class="cls-2" d="M397.28,98.41v1a1.69,1.69,0,0,1,1.64-1h.9v1.27h-1.13c-1,0-1.39.47-1.39,1.62v1.84h2.15v1.19h-5.2v-1.19h1.47V99.61h-1.47v-1.2Z"/>
      <path class="cls-2" d="M404.08,104.47c-1.45,0-2.83-.83-2.83-3.1s1.38-3.09,2.83-3.09,2.83.82,2.83,3.09S405.52,104.47,404.08,104.47Zm0-5c-.76,0-1.24.57-1.24,1.93s.48,1.94,1.24,1.94,1.24-.58,1.24-1.94S404.84,99.44,404.08,99.44Z"/>
      <path class="cls-2" d="M412.3,96.35h1.57v8h-1.56v-.74a1.66,1.66,0,0,1-1.52.88c-1.35,0-2.4-1.06-2.4-3.09s1.05-3.1,2.4-3.1a1.66,1.66,0,0,1,1.52.88Zm-1.17,3.09c-.75,0-1.17.75-1.17,1.94s.42,1.93,1.17,1.93,1.22-.69,1.22-1.93S411.89,99.44,411.13,99.44Z"/>
      <path class="cls-2" d="M419.27,103.68a1.69,1.69,0,0,1-1.51.79c-1.43,0-2-.91-2-2.33V98.41h1.59v3.47c0,.62.06,1.37.87,1.37s1-.79,1-1.69V98.41h1.59v5.92h-1.59Z"/>
      <path class="cls-2" d="M428,100.55h-1.49c-.09-.63-.39-1.11-1.09-1.11s-1.14.61-1.14,1.94.43,1.93,1.14,1.93c.48,0,1-.25,1.12-1.15h1.52a2.57,2.57,0,0,1-2.66,2.31c-1.73,0-2.71-1.3-2.71-3.09s1-3.1,2.74-3.1A2.47,2.47,0,0,1,428,100.55Z"/>
      <path class="cls-2" d="M431.1,96.83h1.58v1.58H435v1.2h-2.31v2.86c0,.56.19.67.65.67H435v1.19h-2.22c-1.29,0-1.65-.43-1.65-1.61V99.61h-1.72v-1.2h1.72Z"/>
    </g>
    <g>
      <rect class="cls-3" x="463.46" y="88.7" width="46.46" height="23.58" transform="translate(973.39 200.99) rotate(180)"/>
      <path class="cls-5" d="M510.42,112.79H463V88.2h47.46Zm-46.46-1h45.46V89.2H464Z"/>
    </g>
    <g>
      <rect class="cls-3" x="324.14" y="112.29" width="35.56" height="23.58" transform="translate(683.83 248.16) rotate(180)"/>
      <path class="cls-5" d="M360.19,136.37H323.63V111.79h36.56Zm-35.56-1h34.56V112.79H324.63Z"/>
    </g>
    <g>
      <rect class="cls-3" x="359.69" y="112.29" width="103.77" height="23.58" transform="translate(823.15 248.16) rotate(180)"/>
      <path class="cls-5" d="M464,136.37H359.19V111.79H464Zm-103.77-1H463V112.79H360.19Z"/>
    </g>
    <g>
      <rect class="cls-3" x="463.46" y="112.29" width="46.46" height="23.58" transform="translate(973.39 248.16) rotate(180)"/>
      <path class="cls-5" d="M510.42,136.37H463V111.79h47.46Zm-46.46-1h45.46V112.79H464Z"/>
    </g>
    <g>
      <rect class="cls-3" x="324.14" y="135.87" width="35.56" height="23.58" transform="translate(683.83 295.33) rotate(180)"/>
      <path class="cls-5" d="M360.19,160H323.63V135.37h36.56Zm-35.56-1h34.56V136.37H324.63Z"/>
    </g>
    <g>
      <rect class="cls-3" x="359.69" y="135.87" width="103.77" height="23.58" transform="translate(823.15 295.33) rotate(180)"/>
      <path class="cls-5" d="M464,160H359.19V135.37H464Zm-103.77-1H463V136.37H360.19Z"/>
    </g>
    <g>
      <rect class="cls-3" x="463.46" y="135.87" width="46.46" height="23.58" transform="translate(973.39 295.33) rotate(180)"/>
      <path class="cls-5" d="M510.42,160H463V135.37h47.46ZM464,159h45.46V136.37H464Z"/>
    </g>
    <g>
      <rect class="cls-3" x="324.14" y="159.42" width="35.56" height="23.58" transform="translate(683.83 342.42) rotate(180)"/>
      <path class="cls-5" d="M360.19,183.5H323.63V158.92h36.56Zm-35.56-1h34.56V159.92H324.63Z"/>
    </g>
    <g>
      <rect class="cls-3" x="359.69" y="159.46" width="103.77" height="23.58" transform="translate(823.15 342.5) rotate(180)"/>
      <path class="cls-5" d="M464,183.54H359.19V159H464Zm-103.77-1H463V160H360.19Z"/>
    </g>
    <g>
      <rect class="cls-3" x="463.46" y="159.46" width="46.46" height="23.58" transform="translate(973.39 342.5) rotate(180)"/>
      <path class="cls-5" d="M510.42,183.54H463V159h47.46Zm-46.46-1h45.46V160H464Z"/>
    </g>
    <g>
      <path class="cls-2" d="M476.15,96.21a2.61,2.61,0,0,1,2.76,2.52h-1.58a1.25,1.25,0,0,0-1.27-1.25.92.92,0,0,0-1,.89c0,.5.29.88,1,1l.69.18c1.06.26,2.36.78,2.36,2.4a2.47,2.47,0,0,1-2.72,2.47,2.92,2.92,0,0,1-3.11-2.78h1.59c.12.9.62,1.52,1.48,1.52a1,1,0,0,0,1.1-.95c0-.59-.39-1-1.17-1.18l-.81-.22a2.45,2.45,0,0,1-2.06-2.34C473.38,96.94,474.8,96.21,476.15,96.21Z"/>
      <path class="cls-2" d="M480.76,104.33v-1.19h1.72V99.6h-1.72V98.41h3.3v4.73h1.73v1.19Zm3.3-8v1.47h-1.58V96.35Z"/>
      <path class="cls-2" d="M487.86,103.17l3.06-3.56h-2.83v-1.2h4.64v1.16l-3.09,3.57h3.17v1.19h-4.95Z"/>
      <path class="cls-2" d="M496.18,101.78c.06,1.09.65,1.57,1.31,1.57a1,1,0,0,0,1.12-.87h1.51a2.49,2.49,0,0,1-2.65,2c-1.85,0-2.81-1.23-2.81-3s1-3.15,2.79-3.15,2.82,1.32,2.77,3.5Zm0-1h2.53c0-1.08-.66-1.37-1.29-1.37A1.32,1.32,0,0,0,496.18,100.78Z"/>
    </g>
    <path class="cls-2" d="M341.59,119.74v7.11h1.67v.87h-4.72v-.87h2v-5.37h-2v-.7c1.33,0,2-.17,2.39-1Z"/>
    <path class="cls-2" d="M343.39,145.33c0,1.84-1.78,3.47-3.82,5.1h4v.87h-5.38v-.87c2.68-2.08,4.16-3.57,4.16-5a1.29,1.29,0,0,0-1.37-1.42c-.83,0-1.59.51-1.61,1.81h-1a2.53,2.53,0,0,1,2.65-2.67A2.18,2.18,0,0,1,343.39,145.33Z"/>
    <path class="cls-2" d="M342.5,172.65c0-1.12-1-1.53-2.18-1.53h-.15v-.89h.12c1.31,0,2-.43,2-1.35a1.31,1.31,0,0,0-1.47-1.26,1.54,1.54,0,0,0-1.64,1.54h-1a2.55,2.55,0,0,1,2.71-2.4c1.29,0,2.52.57,2.52,2a2,2,0,0,1-1.24,1.85,2,2,0,0,1,1.44,2,2.53,2.53,0,0,1-2.8,2.39,2.6,2.6,0,0,1-2.74-2.52h1a1.65,1.65,0,0,0,1.72,1.65A1.51,1.51,0,0,0,342.5,172.65Z"/>
    <path class="cls-2" d="M484.17,121.79c0-1.38,1.19-2.19,2.62-2.19a2.48,2.48,0,0,1,2.65,2.24h-1a1.51,1.51,0,0,0-1.67-1.28c-.72,0-1.48.37-1.48,1.19s.51,1,1.15,1.19l.79.18c1.29.28,2.41.84,2.41,2.36a2.41,2.41,0,0,1-2.69,2.38,2.71,2.71,0,0,1-2.88-2.63h1a1.76,1.76,0,0,0,1.88,1.66,1.43,1.43,0,0,0,1.61-1.33c0-.83-.63-1.2-1.5-1.4l-.87-.21A2.26,2.26,0,0,1,484.17,121.79Z"/>
    <path class="cls-2" d="M484.11,145.37a2.34,2.34,0,0,1,2.62-2.19,2.47,2.47,0,0,1,2.65,2.25h-1a1.52,1.52,0,0,0-1.67-1.28c-.73,0-1.49.36-1.49,1.19s.52,1,1.16,1.19l.79.17c1.29.29,2.41.85,2.41,2.37a2.42,2.42,0,0,1-2.7,2.37,2.72,2.72,0,0,1-2.88-2.63h1a1.77,1.77,0,0,0,1.89,1.67,1.42,1.42,0,0,0,1.6-1.34c0-.82-.62-1.2-1.49-1.39l-.87-.21A2.26,2.26,0,0,1,484.11,145.37Z"/>
    <path class="cls-2" d="M486.24,172.13l-1.17-4.2v6.95h-1v-8h1.64l1.1,4.08,1.1-4.08h1.63v8h-1v-6.95l-1.17,4.2Z"/>
    <g>
      <path class="cls-2" d="M369.65,119.63H372c1.34,0,2.62.39,2.62,2a2,2,0,0,1-.79,1.75,1.9,1.9,0,0,1,1.09,1.89c0,1.7-1.24,2.37-2.67,2.37h-2.6ZM370.7,123h1.52c.83,0,1.36-.33,1.36-1.26s-.55-1.14-1.36-1.14H370.7Zm0,3.6h1.63c1,0,1.51-.46,1.51-1.36s-.5-1.3-1.58-1.3H370.7Z"/>
      <path class="cls-2" d="M379.75,119.63v7.11h1.68v.87h-4.37v-.87h1.68v-6.25h-1.68v-.86Z"/>
      <path class="cls-2" d="M387.59,126.85a1.84,1.84,0,0,1-1.74.9c-1.43,0-1.83-.94-1.83-2.25v-3.81h1v3.46c0,.95.05,1.73,1.15,1.73.92,0,1.41-.67,1.41-1.93v-3.26h1v5.92h-1Z"/>
      <path class="cls-2" d="M390.77,124.67c0-1.9,1.12-3.09,2.68-3.09,1.73,0,2.72,1.27,2.64,3.38h-4.25c0,1.19.66,2,1.59,2a1.43,1.43,0,0,0,1.53-1.09H396a2.44,2.44,0,0,1-2.56,1.91C391.66,127.75,390.77,126.42,390.77,124.67Zm1.08-.55H395a1.52,1.52,0,0,0-1.57-1.7C392.5,122.42,391.89,123,391.85,124.12Z"/>
      <path class="cls-2" d="M407.11,120.62h-2.4v-1h5.84v1h-2.4v7h-1Z"/>
      <path class="cls-2" d="M413,125.07v-.95h3.5v.95Z"/>
      <path class="cls-2" d="M419.19,121.68c0-1.38,1.19-2.19,2.62-2.19a2.47,2.47,0,0,1,2.65,2.24h-1a1.52,1.52,0,0,0-1.67-1.27c-.73,0-1.49.36-1.49,1.19s.52,1,1.16,1.18l.79.18c1.29.29,2.41.85,2.41,2.37a2.42,2.42,0,0,1-2.7,2.37,2.72,2.72,0,0,1-2.88-2.63h1a1.76,1.76,0,0,0,1.89,1.66c.79,0,1.6-.41,1.6-1.33s-.63-1.2-1.49-1.39l-.87-.21A2.27,2.27,0,0,1,419.19,121.68Z"/>
      <path class="cls-2" d="M431.26,123.85v3.76h-1V124.2c0-1-.07-1.76-1.17-1.76-.91,0-1.42.69-1.42,2v3.21h-1v-8h1v2.9a1.89,1.89,0,0,1,1.75-.94C430.84,121.59,431.26,122.54,431.26,123.85Z"/>
      <path class="cls-2" d="M436.66,121.69v5h1.69v.87H434v-.87h1.67v-4.18H434v-.87Zm0-2.06v1.2h-1v-1.2Z"/>
      <path class="cls-2" d="M443.23,121.69v1.06a1.67,1.67,0,0,1,1.58-1.06h1v.92h-1c-1.13,0-1.57.75-1.57,2v2.08h2v.87h-4.71v-.87h1.67v-4.18h-1.68v-.87Z"/>
      <path class="cls-2" d="M448.88,120.21h1v1.48h2.42v.87h-2.42V126c0,.61,0,.76.6.76h1.82v.87h-2c-1.08,0-1.39-.25-1.39-1.49v-3.56H447.2v-.87h1.68Z"/>
    </g>
    <g>
      <path class="cls-2" d="M399.14,167.13v5.45c0,1.74-.76,2.67-2.32,2.67a2.32,2.32,0,0,1-2.38-2.6h1.05c0,1.11.42,1.65,1.33,1.65s1.28-.29,1.28-1.73v-4.44H395v-1Z"/>
      <path class="cls-2" d="M401.43,172.17c0-1.9,1.12-3.09,2.68-3.09,1.73,0,2.72,1.27,2.64,3.38H402.5c0,1.19.66,2,1.59,2a1.43,1.43,0,0,0,1.53-1.09h1.05a2.44,2.44,0,0,1-2.56,1.91C402.32,175.25,401.43,173.92,401.43,172.17Zm1.08-.55h3.17a1.52,1.52,0,0,0-1.57-1.7C403.16,169.92,402.55,170.48,402.51,171.62Z"/>
      <path class="cls-2" d="M408.67,173.57c0-1.41,1.49-1.84,3.91-2.1v-.25a1.16,1.16,0,0,0-1.33-1.33,1.23,1.23,0,0,0-1.41,1.17h-1a2.27,2.27,0,0,1,2.45-2c1.64,0,2.35.73,2.32,2.37v1.44c0,1,.05,1.83.08,2.23h-1v-.87a2.16,2.16,0,0,1-2.08,1A1.72,1.72,0,0,1,408.67,173.57Zm4-1.3c-1.8.18-2.9.43-2.9,1.28,0,.56.4.89,1.12.89.9,0,1.78-.43,1.78-2Z"/>
      <path class="cls-2" d="M417,170a1.86,1.86,0,0,1,1.74-.94c1.43,0,1.86.95,1.86,2.26v3.76h-1V171.7c0-1-.08-1.75-1.18-1.75-.91,0-1.41.68-1.41,2v3.21h-1v-5.92h1Z"/>
      <path class="cls-2" d="M426.62,170.81c-.13-.66-.65-.88-1.32-.88s-1.19.23-1.19.76.31.67.89.79l.66.13c1,.2,2.13.59,2.13,1.77s-1.08,1.87-2.37,1.87a2.22,2.22,0,0,1-2.42-1.91h1.07a1.23,1.23,0,0,0,1.37,1.08c.63,0,1.32-.22,1.32-.92s-.49-.82-1.24-.95l-.74-.15c-.93-.18-1.67-.64-1.67-1.67s1.24-1.64,2.23-1.64a2.18,2.18,0,0,1,2.34,1.72Z"/>
    </g>
    <g>
      <path class="cls-2" d="M375.83,148.66h-1.48V152H373.3v-8h1.95c1.74,0,3.08.37,3.08,2.28a2,2,0,0,1-1.44,2.13l1.69,3.57h-1.19ZM374.35,145v2.64h1c1.06,0,1.88-.1,1.88-1.33s-.82-1.31-1.88-1.31Z"/>
      <path class="cls-2" d="M380.11,149.09c0-1.9,1.12-3.09,2.69-3.09s2.71,1.26,2.64,3.37h-4.26c0,1.19.66,2,1.59,2a1.42,1.42,0,0,0,1.53-1.09h1.05a2.43,2.43,0,0,1-2.55,1.92C381,152.17,380.11,150.84,380.11,149.09Zm1.08-.55h3.17a1.52,1.52,0,0,0-1.56-1.71C381.84,146.83,381.23,147.39,381.19,148.54Z"/>
      <path class="cls-2" d="M391.2,144.05h1v8h-1v-.84a1.89,1.89,0,0,1-1.75,1c-1.36,0-2.39-1.12-2.39-3.08s1-3.08,2.39-3.08a1.88,1.88,0,0,1,1.75,1Zm-1.54,2.81c-1,0-1.53.82-1.53,2.23s.52,2.24,1.53,2.24c.85,0,1.58-.69,1.58-2.24S390.51,146.86,389.66,146.86Z"/>
      <path class="cls-2" d="M403.55,145h-2.4v-1H407v1h-2.4v7h-1.05Z"/>
      <path class="cls-2" d="M409.44,149.48v-.94h3.5v.94Z"/>
      <path class="cls-2" d="M415.64,146.1c0-1.38,1.19-2.19,2.62-2.19a2.48,2.48,0,0,1,2.65,2.24h-1a1.52,1.52,0,0,0-1.68-1.27c-.72,0-1.48.36-1.48,1.18s.52,1.05,1.15,1.19l.8.18c1.28.28,2.41.84,2.41,2.36a2.42,2.42,0,0,1-2.7,2.38,2.71,2.71,0,0,1-2.88-2.63h1a1.76,1.76,0,0,0,1.88,1.66c.8,0,1.61-.42,1.61-1.33s-.63-1.2-1.5-1.4l-.87-.21A2.26,2.26,0,0,1,415.64,146.1Z"/>
      <path class="cls-2" d="M427.71,148.26V152h-1v-3.41c0-1-.07-1.76-1.17-1.76-.91,0-1.42.69-1.42,1.95V152h-1v-8h1v2.89a1.91,1.91,0,0,1,1.75-.93C427.29,146,427.71,147,427.71,148.26Z"/>
      <path class="cls-2" d="M433.11,146.11v5h1.68V152h-4.37v-.87h1.68V147h-1.68v-.87Zm0-2.06v1.2h-1v-1.2Z"/>
      <path class="cls-2" d="M439.68,146.11v1a1.65,1.65,0,0,1,1.58-1h1V147h-1c-1.13,0-1.57.75-1.57,2.05v2.08h2V152H437v-.87h1.68V147H437v-.87Z"/>
      <path class="cls-2" d="M445.33,144.62h1v1.49h2.42V147h-2.42v3.42c0,.6,0,.76.6.76h1.82V152h-2c-1.08,0-1.39-.26-1.39-1.49V147h-1.68v-.87h1.68Z"/>
    </g>
    <g>
      <rect class="cls-3" x="324.14" y="183" width="35.56" height="23.58" transform="translate(683.83 389.58) rotate(180)"/>
      <path class="cls-5" d="M360.19,207.08H323.63V182.5h36.56Zm-35.56-1h34.56V183.5H324.63Z"/>
    </g>
    <g>
      <rect class="cls-3" x="359.69" y="183" width="103.77" height="23.58" transform="translate(823.15 389.58) rotate(180)"/>
      <path class="cls-5" d="M464,207.08H359.19V182.5H464Zm-103.77-1H463V183.5H360.19Z"/>
    </g>
    <g>
      <rect class="cls-3" x="463.46" y="183" width="46.46" height="23.58" transform="translate(973.39 389.58) rotate(180)"/>
      <path class="cls-5" d="M510.42,207.08H463V182.5h47.46Zm-46.46-1h45.46V183.5H464Z"/>
    </g>
    <g>
      <rect class="cls-3" x="324.14" y="206.58" width="35.56" height="23.58" transform="translate(683.83 436.75) rotate(180)"/>
      <path class="cls-5" d="M360.19,230.67H323.63V206.08h36.56Zm-35.56-1h34.56V207.08H324.63Z"/>
    </g>
    <g>
      <rect class="cls-3" x="359.69" y="206.58" width="103.77" height="23.58" transform="translate(823.15 436.75) rotate(180)"/>
      <path class="cls-5" d="M464,230.67H359.19V206.08H464Zm-103.77-1H463V207.08H360.19Z"/>
    </g>
    <g>
      <rect class="cls-3" x="463.46" y="206.58" width="46.46" height="23.58" transform="translate(973.39 436.75) rotate(180)"/>
      <path class="cls-5" d="M510.42,230.67H463V206.08h47.46Zm-46.46-1h45.46V207.08H464Z"/>
    </g>
    <g>
      <rect class="cls-3" x="324.14" y="230.13" width="35.56" height="23.58" transform="translate(683.83 483.85) rotate(180)"/>
      <path class="cls-5" d="M360.19,254.22H323.63V229.63h36.56Zm-35.56-1h34.56V230.63H324.63Z"/>
    </g>
    <g>
      <rect class="cls-3" x="359.69" y="230.17" width="103.77" height="23.58" transform="translate(823.15 483.92) rotate(180)"/>
      <path class="cls-5" d="M464,254.25H359.19V229.67H464Zm-103.77-1H463V230.67H360.19Z"/>
    </g>
    <g>
      <rect class="cls-3" x="463.46" y="230.17" width="46.46" height="23.58" transform="translate(973.39 483.92) rotate(180)"/>
      <path class="cls-5" d="M510.42,254.25H463V229.67h47.46Zm-46.46-1h45.46V230.67H464Z"/>
    </g>
    <path class="cls-2" d="M343.91,196.46h-1.33v2h-1v-2H337.8v-1l3.75-5.06h1v5.06h1.33Zm-5.05-1h2.7v-3.69Z"/>
    <path class="cls-2" d="M342.5,219.39a1.66,1.66,0,0,0-1.71-1.82,1.6,1.6,0,0,0-1.45.83l-1,0,.51-4.33h4.43v.86h-3.57l-.28,2.39a2.29,2.29,0,0,1,1.65-.59,2.53,2.53,0,0,1,2.55,2.69,2.67,2.67,0,0,1-2.78,2.77,2.59,2.59,0,0,1-2.73-2.52h1a1.65,1.65,0,0,0,1.73,1.65A1.71,1.71,0,0,0,342.5,219.39Z"/>
    <path class="cls-2" d="M339.1,241.38a2.16,2.16,0,0,1,2-1.09,2.54,2.54,0,0,1,2.5,2.71,2.69,2.69,0,0,1-2.73,2.74c-1.89,0-2.82-1.4-2.82-3.82,0-2.24.83-4.44,3-4.44a2.29,2.29,0,0,1,2.4,2h-1.09a1.28,1.28,0,0,0-1.37-1.11C339.79,238.34,339.14,239.57,339.1,241.38Zm1.76,3.49a1.84,1.84,0,1,0-1.65-1.83A1.65,1.65,0,0,0,340.86,244.87Z"/>
    <path class="cls-2" d="M486.29,195.68l-1.16-4.21v7h-1.05v-8h1.64l1.1,4.08,1.1-4.08h1.64v8h-1.05v-7l-1.16,4.21Z"/>
    <path class="cls-2" d="M485.63,221h3.92v1h-5v-8h1Z"/>
    <path class="cls-2" d="M485.63,244.61h3.92v1h-5v-8h1Z"/>
    <g>
      <path class="cls-2" d="M392.1,194.16l2.85-3.82h1.23l-2.41,3.12,2.72,4.86h-1.2l-2.2-4-1,1.27v2.71h-1v-8h1Z"/>
      <path class="cls-2" d="M402.84,194.56v3.76h-1v-3.41c0-1-.06-1.76-1.16-1.76-.91,0-1.42.69-1.42,2v3.21h-1v-8h1v2.9a1.89,1.89,0,0,1,1.75-.94C402.42,192.3,402.84,193.25,402.84,194.56Z"/>
      <path class="cls-2" d="M405.11,196.78c0-1.41,1.5-1.84,3.92-2.1v-.25a1.16,1.16,0,0,0-1.33-1.33,1.23,1.23,0,0,0-1.41,1.17h-1a2.27,2.27,0,0,1,2.45-2c1.64,0,2.34.73,2.32,2.37v1.44c0,1,0,1.83.08,2.23h-1v-.87a2.17,2.17,0,0,1-2.08,1A1.73,1.73,0,0,1,405.11,196.78Zm4-1.3c-1.81.18-2.91.43-2.91,1.28,0,.56.41.89,1.12.89.91,0,1.79-.43,1.79-2Z"/>
      <path class="cls-2" d="M413.53,190.34v4.76l2.62-2.7h1.3l-2.33,2.3,2.56,3.62h-1.16l-2.08-2.95-.91.9v2h-1v-8Z"/>
      <path class="cls-2" d="M422.45,192.4v5h1.68v.87h-4.36v-.87h1.67v-4.18h-1.67v-.87Zm0-2.06v1.2h-1v-1.2Z"/>
      <path class="cls-2" d="M430.17,194c-.13-.66-.65-.88-1.32-.88s-1.19.23-1.19.76.31.67.89.79l.66.13c1,.2,2.13.59,2.13,1.77s-1.08,1.87-2.37,1.87a2.22,2.22,0,0,1-2.42-1.91h1.07a1.23,1.23,0,0,0,1.37,1.08c.63,0,1.32-.22,1.32-.92,0-.54-.49-.82-1.24-1l-.74-.15c-.93-.18-1.67-.64-1.67-1.67s1.25-1.64,2.23-1.64a2.18,2.18,0,0,1,2.34,1.72Z"/>
    </g>
    <g>
      <path class="cls-2" d="M372.28,242.46h-1.49v3.35h-1v-8h1.95c1.73,0,3.08.37,3.08,2.27a2,2,0,0,1-1.44,2.14l1.69,3.56h-1.19Zm-1.49-3.62v2.64h1c1.05,0,1.88-.1,1.88-1.33s-.83-1.31-1.88-1.31Z"/>
      <path class="cls-2" d="M379.81,239.9v5h1.69v.87h-4.37V245h1.67v-4.18h-1.67v-.87Zm0-2.05v1.2h-1v-1.2Z"/>
      <path class="cls-2" d="M385,240.8a1.88,1.88,0,0,1,1.75-1c1.37,0,2.39,1.13,2.39,3.08s-1,3.08-2.39,3.08a1.9,1.9,0,0,1-1.75-1v2.76h-1V239.9h1Zm1.54,4.33c1,0,1.53-.84,1.53-2.24s-.51-2.24-1.53-2.24c-.84,0-1.58.67-1.58,2.24S385.68,245.13,386.52,245.13Z"/>
      <path class="cls-2" d="M392.09,240.8a1.88,1.88,0,0,1,1.75-1c1.36,0,2.39,1.13,2.39,3.08s-1,3.08-2.39,3.08a1.9,1.9,0,0,1-1.75-1v2.76h-1V239.9h1Zm1.54,4.33c1,0,1.53-.84,1.53-2.24s-.52-2.24-1.53-2.24c-.85,0-1.58.67-1.58,2.24S392.78,245.13,393.63,245.13Z"/>
      <path class="cls-2" d="M397.88,242.89c0-1.91,1.12-3.1,2.68-3.1,1.73,0,2.72,1.27,2.64,3.38h-4.26c0,1.19.66,2,1.6,2a1.43,1.43,0,0,0,1.53-1.09h1a2.43,2.43,0,0,1-2.55,1.92C398.77,246,397.88,244.63,397.88,242.89Zm1.07-.55h3.17a1.52,1.52,0,0,0-1.56-1.71C399.6,240.63,399,241.19,399,242.34Z"/>
      <path class="cls-2" d="M409,237.85h1v8h-1l0-.83a1.88,1.88,0,0,1-1.74,1c-1.37,0-2.39-1.13-2.39-3.08s1-3.08,2.39-3.08a1.85,1.85,0,0,1,1.74,1Zm-1.54,2.8c-1,0-1.52.83-1.52,2.24s.51,2.24,1.52,2.24c.85,0,1.59-.69,1.59-2.24S408.27,240.65,407.42,240.65Z"/>
      <path class="cls-2" d="M424,237.85v5.44c0,1.74-.76,2.68-2.32,2.68a2.33,2.33,0,0,1-2.38-2.61h1.05c0,1.11.42,1.65,1.33,1.65s1.28-.29,1.28-1.73v-4.44H419.9v-1Z"/>
      <path class="cls-2" d="M426.3,242.89c0-1.91,1.12-3.1,2.68-3.1,1.73,0,2.72,1.27,2.64,3.38h-4.25c0,1.19.66,2,1.59,2a1.43,1.43,0,0,0,1.53-1.09h1.05A2.45,2.45,0,0,1,429,246C427.19,246,426.3,244.63,426.3,242.89Zm1.08-.55h3.17a1.52,1.52,0,0,0-1.57-1.71C428,240.63,427.42,241.19,427.38,242.34Z"/>
      <path class="cls-2" d="M433.54,244.28c0-1.4,1.49-1.83,3.92-2.1v-.25a1.17,1.17,0,0,0-1.34-1.33,1.23,1.23,0,0,0-1.41,1.17h-1a2.27,2.27,0,0,1,2.45-2c1.64,0,2.35.73,2.33,2.37l0,1.44c0,1,.05,1.84.08,2.23h-1V245a2.17,2.17,0,0,1-2.08,1A1.73,1.73,0,0,1,433.54,244.28Zm4-1.3c-1.8.18-2.9.43-2.9,1.28,0,.56.4.89,1.12.89.9,0,1.78-.43,1.78-2Z"/>
      <path class="cls-2" d="M441.88,240.74a1.83,1.83,0,0,1,1.73-.93c1.43,0,1.86.94,1.86,2.25v3.76h-1v-3.41c0-.95-.08-1.75-1.18-1.75-.91,0-1.4.69-1.4,2v3.21h-1V239.9h1Z"/>
      <path class="cls-2" d="M451.49,241.52c-.13-.66-.65-.88-1.32-.88s-1.19.23-1.19.76.31.67.89.79l.66.14c1,.19,2.13.58,2.13,1.77s-1.08,1.87-2.37,1.87a2.23,2.23,0,0,1-2.42-1.92h1.07a1.23,1.23,0,0,0,1.37,1.08c.63,0,1.32-.22,1.32-.91s-.49-.83-1.24-1l-.74-.14c-.93-.19-1.67-.65-1.67-1.68s1.24-1.63,2.23-1.63a2.19,2.19,0,0,1,2.34,1.71Z"/>
    </g>
    <g>
      <path class="cls-2" d="M380.65,221.22l.6-6.46h1l-.8,8h-1.36l-.92-4.16-.92,4.16h-1.37l-.79-8h1l.59,6.46.88-4h1.13Z"/>
      <path class="cls-2" d="M386.32,216.72a3.1,3.1,0,1,1-2.74,3.08A2.75,2.75,0,0,1,386.32,216.72Zm0,5.31c.9,0,1.67-.66,1.67-2.23s-.77-2.23-1.67-2.23-1.68.66-1.68,2.23S385.41,222,386.32,222Z"/>
      <path class="cls-2" d="M393.49,216.82v1.05a1.66,1.66,0,0,1,1.58-1.05h1v.92h-1c-1.13,0-1.57.75-1.57,2v2.08h2v.87h-4.7v-.87h1.67v-4.18h-1.69v-.87Z"/>
      <path class="cls-2" d="M399.32,214.76v4.75l2.62-2.69h1.29l-2.32,2.3,2.56,3.62h-1.16l-2.08-3-.91.9v2.05h-1v-8Z"/>
      <path class="cls-2" d="M414.47,214.76c1.75,0,3.1.47,3.1,2.45s-1.35,2.46-3.1,2.46h-.91v3.07h-1v-8Zm-.91,1v2.93h1.05c1.06,0,1.88-.17,1.88-1.47s-.82-1.46-1.88-1.46Z"/>
      <path class="cls-2" d="M419.33,221.2c0-1.41,1.49-1.84,3.91-2.11v-.25a1.17,1.17,0,0,0-1.33-1.33,1.23,1.23,0,0,0-1.41,1.18h-1a2.27,2.27,0,0,1,2.45-2c1.64,0,2.35.72,2.32,2.36v1.44c0,1,0,1.84.08,2.24h-1v-.87a2.18,2.18,0,0,1-2.08,1A1.72,1.72,0,0,1,419.33,221.2Zm4-1.3c-1.8.17-2.9.43-2.9,1.27,0,.57.4.9,1.12.9.9,0,1.78-.43,1.78-2Z"/>
      <path class="cls-2" d="M427.67,217.65a1.85,1.85,0,0,1,1.73-.93c1.43,0,1.86.95,1.86,2.25v3.77h-1v-3.41c0-1-.08-1.75-1.18-1.75-.91,0-1.4.68-1.4,1.94v3.22h-1v-5.92h1Z"/>
      <path class="cls-2" d="M434.67,215.33h1v1.49h2.42v.87h-2.42v3.42c0,.6,0,.76.6.76h1.82v.87h-2c-1.08,0-1.39-.26-1.39-1.49v-3.56H433v-.87h1.68Z"/>
      <path class="cls-2" d="M444.38,218.43c-.13-.66-.64-.88-1.32-.88s-1.18.24-1.18.76.3.67.89.8l.66.13c1,.2,2.12.58,2.12,1.77s-1.08,1.87-2.37,1.87a2.24,2.24,0,0,1-2.42-1.92h1.07a1.23,1.23,0,0,0,1.38,1.08c.62,0,1.32-.22,1.32-.91s-.5-.83-1.25-1l-.73-.14c-.94-.19-1.67-.65-1.67-1.67s1.24-1.64,2.23-1.64a2.18,2.18,0,0,1,2.33,1.71Z"/>
    </g>
    <g>
      <g>
        <rect class="cls-3" x="76.11" y="383" width="25.83" height="17.13" transform="translate(178.05 783.13) rotate(180)"/>
        <path class="cls-5" d="M102.44,400.63H75.61V382.5h26.83Zm-25.83-1h24.83V383.5H76.61Z"/>
      </g>
      <g>
        <rect class="cls-3" x="101.94" y="383" width="75.37" height="17.13" transform="translate(279.25 783.13) rotate(180)"/>
        <path class="cls-5" d="M177.81,400.63H101.44V382.5h76.37Zm-75.37-1h74.37V383.5H102.44Z"/>
      </g>
      <g>
        <path class="cls-2" d="M83.69,388.55h4v1H86.27v3.73h1.37v1h-4v-1h1.38v-3.73H83.69Z"/>
        <path class="cls-2" d="M90.23,388.55c1.57,0,2.8.68,2.8,2.9s-1.25,2.9-2.83,2.9H88.87v-5.8Zm-.06,1h-.1v3.84h.1c1,0,1.59-.39,1.59-1.92S91.15,389.53,90.17,389.53Z"/>
      </g>
      <g>
        <path class="cls-2" d="M123.79,388.55c1.33,0,2.25.44,2.25,1.79s-.92,1.76-2.25,1.76h-.59v2.25H122v-5.8Zm-.59,1v1.61h.56c.55,0,1-.19,1-.8s-.45-.81-1-.81Z"/>
        <path class="cls-2" d="M129.22,390.05v.73a1.23,1.23,0,0,1,1.2-.73h.65V391h-.82c-.73,0-1,.34-1,1.18v1.34h1.56v.86H127v-.86h1.07v-2.57H127v-.87Z"/>
        <path class="cls-2" d="M134.17,394.46a2.27,2.27,0,1,1,2.05-2.26A2,2,0,0,1,134.17,394.46Zm0-3.66c-.55,0-.91.41-.91,1.4s.36,1.41.91,1.41.9-.42.9-1.41S134.72,390.8,134.17,390.8Z"/>
        <path class="cls-2" d="M140.14,388.55h1.15v5.8h-1.14v-.53a1.18,1.18,0,0,1-1.1.64c-1,0-1.74-.78-1.74-2.25S138.06,390,139,390a1.18,1.18,0,0,1,1.1.64Zm-.84,2.25c-.55,0-.85.54-.85,1.41s.3,1.4.85,1.4.88-.5.88-1.4S139.85,390.8,139.3,390.8Z"/>
        <path class="cls-2" d="M145.21,393.88a1.22,1.22,0,0,1-1.09.58c-1,0-1.45-.67-1.45-1.7v-2.71h1.15v2.52c0,.45.05,1,.64,1s.75-.58.75-1.23v-2.29h1.16v4.3h-1.16Z"/>
        <path class="cls-2" d="M151.57,391.6h-1.09c-.06-.45-.28-.8-.79-.8s-.83.44-.83,1.41.32,1.4.83,1.4c.35,0,.71-.18.81-.83h1.11a1.88,1.88,0,0,1-1.94,1.68,2.27,2.27,0,0,1,0-4.51A1.81,1.81,0,0,1,151.57,391.6Z"/>
        <path class="cls-2" d="M153.82,388.9H155v1.15h1.68v.87H155V393c0,.41.13.49.47.49h1.19v.86H155c-.94,0-1.2-.31-1.2-1.17v-2.26h-1.25v-.87h1.25Z"/>
      </g>
      <g>
        <rect class="cls-3" x="177.31" y="383" width="33.74" height="17.13" transform="translate(388.36 783.13) rotate(180)"/>
        <path class="cls-5" d="M211.55,400.63H176.81V382.5h34.74Zm-33.74-1h32.74V383.5H177.81Z"/>
      </g>
      <g>
        <rect class="cls-3" x="76.11" y="400.13" width="25.83" height="17.13" transform="translate(178.05 817.39) rotate(180)"/>
        <path class="cls-5" d="M102.44,417.76H75.61V399.63h26.83Zm-25.83-1h24.83V400.63H76.61Z"/>
      </g>
      <g>
        <rect class="cls-3" x="101.94" y="400.13" width="75.37" height="17.13" transform="translate(279.25 817.39) rotate(180)"/>
        <path class="cls-5" d="M177.81,417.76H101.44V399.63h76.37Zm-75.37-1h74.37V400.63H102.44Z"/>
      </g>
      <g>
        <rect class="cls-3" x="177.31" y="400.13" width="33.74" height="17.13" transform="translate(388.36 817.39) rotate(180)"/>
        <path class="cls-5" d="M211.55,417.76H176.81V399.63h34.74Zm-33.74-1h32.74V400.63H177.81Z"/>
      </g>
      <g>
        <rect class="cls-3" x="76.11" y="417.26" width="25.83" height="17.13" transform="translate(178.05 851.65) rotate(180)"/>
        <path class="cls-5" d="M102.44,434.89H75.61V416.76h26.83Zm-25.83-1h24.83V417.76H76.61Z"/>
      </g>
      <g>
        <rect class="cls-3" x="101.94" y="417.26" width="75.37" height="17.13" transform="translate(279.25 851.65) rotate(180)"/>
        <path class="cls-5" d="M177.81,434.89H101.44V416.76h76.37Zm-75.37-1h74.37V417.76H102.44Z"/>
      </g>
      <g>
        <rect class="cls-3" x="177.31" y="417.26" width="33.74" height="17.13" transform="translate(388.36 851.65) rotate(180)"/>
        <path class="cls-5" d="M211.55,434.89H176.81V416.76h34.74Zm-33.74-1h32.74V417.76H177.81Z"/>
      </g>
      <g>
        <path class="cls-2" d="M186.51,388.45a1.9,1.9,0,0,1,2,1.83h-1.15c-.08-.57-.4-.91-.92-.91a.67.67,0,0,0-.75.65c0,.37.2.64.72.77l.51.12c.77.2,1.71.57,1.71,1.75a1.8,1.8,0,0,1-2,1.8,2.13,2.13,0,0,1-2.26-2h1.16c.09.66.45,1.11,1.07,1.11a.71.71,0,0,0,.8-.69c0-.43-.28-.71-.85-.86l-.59-.16a1.71,1.71,0,1,1,.52-3.38Z"/>
        <path class="cls-2" d="M189.86,394.35v-.86h1.25v-2.58h-1.25v-.86h2.4v3.44h1.26v.86Zm2.4-5.8v1.07h-1.15v-1.07Z"/>
        <path class="cls-2" d="M195,393.51l2.23-2.59h-2.06v-.87h3.38v.84l-2.25,2.6h2.3v.86H195Z"/>
        <path class="cls-2" d="M201.08,392.5c0,.79.47,1.14.95,1.14a.76.76,0,0,0,.82-.63h1.09a1.81,1.81,0,0,1-1.92,1.45,2,2,0,0,1-2-2.22,2,2,0,0,1,2-2.29c1.29,0,2.05,1,2,2.55Zm0-.73h1.84c0-.78-.48-1-.94-1A1,1,0,0,0,201.08,391.77Z"/>
      </g>
      <path class="cls-2" d="M88.79,405.54v5.17H90v.63H86.57v-.63h1.48V406.8H86.57v-.5c1,0,1.44-.13,1.74-.76Z"/>
      <path class="cls-2" d="M90.1,424.13c0,1.34-1.3,2.52-2.78,3.71H90.2v.63H86.29v-.63c1.94-1.52,3-2.6,3-3.62a.94.94,0,0,0-1-1c-.6,0-1.15.37-1.16,1.32h-.76a1.85,1.85,0,0,1,1.93-1.94A1.58,1.58,0,0,1,90.1,424.13Z"/>
      <path class="cls-2" d="M192.34,407a1.7,1.7,0,0,1,1.91-1.59,1.8,1.8,0,0,1,1.92,1.63h-.75a1.1,1.1,0,0,0-1.21-.93c-.53,0-1.08.26-1.08.86s.37.76.83.87l.58.13c.94.2,1.75.61,1.75,1.71a1.76,1.76,0,0,1-2,1.73,2,2,0,0,1-2.09-1.91H193a1.28,1.28,0,0,0,1.37,1.21,1,1,0,0,0,1.16-1c0-.6-.45-.87-1.08-1l-.63-.15A1.64,1.64,0,0,1,192.34,407Z"/>
      <path class="cls-2" d="M192.3,424.16a1.7,1.7,0,0,1,1.91-1.59,1.8,1.8,0,0,1,1.92,1.63h-.75a1.1,1.1,0,0,0-1.21-.93c-.53,0-1.08.26-1.08.86s.37.76.83.87l.58.13c.94.2,1.75.61,1.75,1.71a1.76,1.76,0,0,1-2,1.73,2,2,0,0,1-2.09-1.91H193a1.28,1.28,0,0,0,1.37,1.21,1,1,0,0,0,1.16-1c0-.6-.45-.87-1.08-1l-.63-.15A1.64,1.64,0,0,1,192.3,424.16Z"/>
      <g>
        <path class="cls-2" d="M109.13,405.46h1.71c1,0,1.9.28,1.9,1.44a1.47,1.47,0,0,1-.57,1.27,1.37,1.37,0,0,1,.79,1.37c0,1.23-.91,1.72-1.94,1.72h-1.89Zm.76,2.47H111c.6,0,1-.24,1-.92s-.4-.83-1-.83h-1.11Zm0,2.61h1.19c.73,0,1.09-.33,1.09-1s-.36-.94-1.15-.94h-1.13Z"/>
        <path class="cls-2" d="M116.47,405.46v5.17h1.22v.63h-3.17v-.63h1.22v-4.54h-1.22v-.63Z"/>
        <path class="cls-2" d="M122.17,410.71a1.33,1.33,0,0,1-1.26.65c-1,0-1.33-.68-1.33-1.63V407h.73v2.51c0,.7,0,1.26.84,1.26s1-.48,1-1.4V407h.74v4.3h-.74Z"/>
        <path class="cls-2" d="M124.49,409.13a2,2,0,0,1,2-2.25c1.26,0,2,.92,1.92,2.45h-3.1c0,.87.48,1.43,1.16,1.43a1,1,0,0,0,1.12-.79h.75a1.75,1.75,0,0,1-1.85,1.39C125.14,411.36,124.49,410.4,124.49,409.13Zm.78-.4h2.31a1.11,1.11,0,0,0-1.14-1.24C125.74,407.49,125.3,407.89,125.27,408.73Z"/>
        <path class="cls-2" d="M136.37,406.18h-1.75v-.72h4.25v.72h-1.74v5.08h-.76Z"/>
        <path class="cls-2" d="M140.65,409.41v-.68h2.54v.68Z"/>
        <path class="cls-2" d="M145.16,407a1.69,1.69,0,0,1,1.9-1.59A1.8,1.8,0,0,1,149,407h-.75a1.11,1.11,0,0,0-1.22-.93c-.52,0-1.08.27-1.08.87s.38.76.84.86l.58.13c.93.21,1.75.61,1.75,1.72a1.75,1.75,0,0,1-2,1.72,2,2,0,0,1-2.09-1.91h.75a1.28,1.28,0,0,0,1.37,1.21,1,1,0,0,0,1.16-1c0-.6-.45-.87-1.08-1l-.64-.15A1.65,1.65,0,0,1,145.16,407Z"/>
        <path class="cls-2" d="M153.93,408.53v2.73h-.73v-2.48c0-.69,0-1.28-.85-1.28s-1,.51-1,1.43v2.33h-.74v-5.8h.74v2.11a1.36,1.36,0,0,1,1.27-.68C153.63,406.89,153.93,407.58,153.93,408.53Z"/>
        <path class="cls-2" d="M157.86,407v3.67h1.23v.63h-3.18v-.63h1.22v-3h-1.22V407Zm0-1.5v.88h-.73v-.88Z"/>
        <path class="cls-2" d="M162.64,407v.77a1.21,1.21,0,0,1,1.15-.77h.74v.67h-.73c-.82,0-1.14.54-1.14,1.49v1.51h1.47v.63H160.7v-.63h1.22v-3H160.7V407Z"/>
        <path class="cls-2" d="M166.75,405.88h.74V407h1.76v.63h-1.76v2.49c0,.44,0,.55.43.55h1.33v.63h-1.49c-.78,0-1-.18-1-1.08v-2.59h-1.22V407h1.22Z"/>
      </g>
      <g>
        <path class="cls-2" d="M113.62,426.55h-1.08V429h-.76V423.2h1.42c1.26,0,2.24.27,2.24,1.65a1.43,1.43,0,0,1-1,1.55l1.23,2.59h-.86Zm-1.08-2.63v1.92h.75c.77,0,1.37-.08,1.37-1s-.6-.95-1.37-.95Z"/>
        <path class="cls-2" d="M116.74,426.86a2,2,0,0,1,2-2.25c1.25,0,2,.92,1.92,2.46h-3.1c0,.86.48,1.43,1.16,1.43a1,1,0,0,0,1.11-.79h.76a1.76,1.76,0,0,1-1.85,1.39C117.38,429.1,116.74,428.13,116.74,426.86Zm.78-.4h2.3a1.1,1.1,0,0,0-1.13-1.24C118,425.22,117.55,425.63,117.52,426.46Z"/>
        <path class="cls-2" d="M124.8,423.2h.74V429h-.73v-.6a1.38,1.38,0,0,1-1.27.71c-1,0-1.74-.82-1.74-2.24s.75-2.24,1.74-2.24a1.35,1.35,0,0,1,1.27.72Zm-1.12,2c-.74,0-1.11.6-1.11,1.62s.37,1.63,1.11,1.63,1.15-.5,1.15-1.63S124.29,425.24,123.68,425.24Z"/>
        <path class="cls-2" d="M133.78,423.92H132v-.72h4.25v.72h-1.75V429h-.76Z"/>
        <path class="cls-2" d="M138.06,427.15v-.69h2.55v.69Z"/>
        <path class="cls-2" d="M142.58,424.68a1.69,1.69,0,0,1,1.9-1.59,1.8,1.8,0,0,1,1.93,1.63h-.75a1.11,1.11,0,0,0-1.22-.92c-.53,0-1.08.26-1.08.86s.38.76.84.86l.58.13c.93.21,1.75.62,1.75,1.72a1.76,1.76,0,0,1-2,1.73,2,2,0,0,1-2.1-1.91h.75a1.28,1.28,0,0,0,1.37,1.2c.58,0,1.17-.3,1.17-1s-.46-.88-1.09-1l-.63-.15A1.65,1.65,0,0,1,142.58,424.68Z"/>
        <path class="cls-2" d="M151.35,426.26V429h-.73v-2.48c0-.69-.05-1.27-.85-1.27s-1,.5-1,1.42V429H148V423.2h.74v2.1a1.35,1.35,0,0,1,1.27-.68C151.05,424.62,151.35,425.31,151.35,426.26Z"/>
        <path class="cls-2" d="M155.28,424.69v3.67h1.22V429h-3.17v-.63h1.21v-3h-1.21v-.63Zm0-1.49v.87h-.74v-.87Z"/>
        <path class="cls-2" d="M160.06,424.69v.77a1.21,1.21,0,0,1,1.15-.77h.73v.67h-.73c-.82,0-1.14.55-1.14,1.49v1.51h1.47V429h-3.42v-.63h1.22v-3h-1.23v-.63Z"/>
        <path class="cls-2" d="M164.17,423.61h.73v1.08h1.76v.63H164.9v2.49c0,.44,0,.55.43.55h1.33V429h-1.48c-.79,0-1-.18-1-1.08v-2.59h-1.23v-.63h1.23Z"/>
      </g>
    </g>
    <g>
      <g>
        <g>
          <path class="cls-4" d="M257.31,414.4c-9.61,0-18.51-.93-22.67-2.38-2.18-.39-2.18-1-2.18-1.25V400.1h49.7v10.7c0,.18,0,.82-2.07,1.19C275.87,413.46,267,414.4,257.31,414.4Z"/>
          <path class="cls-2" d="M281.66,400.6v10h0v.16c0,.22-.55.51-1.66.71l-.08,0-.07,0c-4.1,1.43-13,2.36-22.54,2.36s-18.39-.92-22.5-2.35l-.08,0-.08,0c-1.12-.2-1.65-.49-1.68-.71h0V400.6h48.7m1-1H232v11s0,0,0,.06,0,0,0,.06c0,.92.91,1.44,2.52,1.73,4.1,1.42,12.78,2.4,22.83,2.4s18.78-1,22.87-2.41c1.59-.29,2.48-.82,2.48-1.72a.18.18,0,0,1,0-.12v-11Z"/>
        </g>
        <g>
          <path class="cls-4" d="M257.31,403.32c-17.7,0-24.85-2.64-24.85-3.74s7.15-3.75,24.85-3.75,24.85,2.64,24.85,3.75S275,403.32,257.31,403.32Z"/>
          <path class="cls-2" d="M257.31,396.33c14.73,0,23.33,2,24.31,3.25-1,1.21-9.58,3.24-24.31,3.24s-23.33-2-24.3-3.24c1-1.21,9.57-3.25,24.3-3.25m0-1c-14,0-25.35,1.9-25.35,4.25s11.35,4.24,25.35,4.24,25.35-1.9,25.35-4.24-11.35-4.25-25.35-4.25Z"/>
        </g>
      </g>
      <g>
        <g>
          <path class="cls-4" d="M257.31,403.21c-9.61,0-18.5-.93-22.67-2.37-2.18-.39-2.18-1-2.18-1.25V388.92h49.7v10.69c0,.19,0,.82-2.07,1.2C275.87,402.28,267,403.21,257.31,403.21Z"/>
          <path class="cls-2" d="M281.66,389.42v10h0v.16c0,.21-.55.51-1.66.71h-.08l-.07,0c-4.1,1.43-13,2.35-22.54,2.35s-18.39-.92-22.5-2.34l-.08,0h-.08c-1.12-.2-1.65-.5-1.68-.72h0V389.42h48.7m1-1H232v11.05s0,0,0,.06,0,0,0,.06c0,.91.91,1.44,2.52,1.72,4.1,1.42,12.78,2.4,22.83,2.4s18.78-1,22.87-2.41c1.59-.29,2.48-.81,2.48-1.71a.18.18,0,0,1,0-.12V388.42Z"/>
        </g>
        <g>
          <ellipse class="cls-4" cx="257.31" cy="388.39" rx="24.85" ry="3.75"/>
          <path class="cls-2" d="M257.31,385.15c14.73,0,23.33,2,24.31,3.24-1,1.21-9.58,3.25-24.31,3.25s-23.33-2-24.3-3.25c1-1.21,9.57-3.24,24.3-3.24m0-1c-14,0-25.35,1.9-25.35,4.24s11.35,4.25,25.35,4.25,25.35-1.9,25.35-4.25-11.35-4.24-25.35-4.24Z"/>
        </g>
      </g>
      <g>
        <g>
          <path class="cls-4" d="M257.31,392c-9.61,0-18.51-.93-22.67-2.37-2.18-.4-2.18-1-2.18-1.26V377.73h49.7v10.7c0,.18,0,.82-2.07,1.19C275.87,391.09,267,392,257.31,392Z"/>
          <path class="cls-2" d="M281.66,378.23v10h0v.16c0,.22-.55.51-1.66.71l-.08,0-.07,0c-4.1,1.43-13,2.36-22.54,2.36s-18.39-.92-22.5-2.35l-.08,0-.08,0c-1.12-.2-1.65-.49-1.68-.71h0V378.23h48.7m1-1H232v11s0,0,0,.06,0,0,0,.06c0,.92.91,1.44,2.52,1.73,4.1,1.42,12.78,2.4,22.83,2.4s18.78-1,22.87-2.41c1.59-.29,2.48-.82,2.48-1.72a.18.18,0,0,1,0-.12v-11Z"/>
        </g>
        <g>
          <ellipse class="cls-4" cx="257.31" cy="377.21" rx="24.85" ry="3.75"/>
          <path class="cls-2" d="M257.31,374c14.73,0,23.33,2,24.31,3.25-1,1.21-9.58,3.24-24.31,3.24s-23.33-2-24.3-3.24c1-1.21,9.57-3.25,24.3-3.25m0-1c-14,0-25.35,1.9-25.35,4.25s11.35,4.24,25.35,4.24,25.35-1.9,25.35-4.24S271.31,373,257.31,373Z"/>
        </g>
      </g>
    </g>
    <g>
      <g>
        <rect class="cls-3" x="268.19" y="383" width="25.83" height="17.13" transform="translate(562.21 783.13) rotate(180)"/>
        <path class="cls-5" d="M294.52,400.63H267.69V382.5h26.83Zm-25.83-1h24.83V383.5H268.69Z"/>
      </g>
      <g>
        <rect class="cls-3" x="294.02" y="383" width="75.37" height="17.13" transform="translate(663.41 783.13) rotate(180)"/>
        <path class="cls-5" d="M369.89,400.63H293.52V382.5h76.37Zm-75.37-1h74.37V383.5H294.52Z"/>
      </g>
      <g>
        <path class="cls-2" d="M275.78,388.55h4v1h-1.38v3.73h1.38v1h-4v-1h1.37v-3.73h-1.37Z"/>
        <path class="cls-2" d="M282.31,388.55c1.58,0,2.8.68,2.8,2.9s-1.25,2.9-2.83,2.9H281v-5.8Zm-.06,1h-.1v3.84h.1c1,0,1.59-.39,1.59-1.92S283.23,389.53,282.25,389.53Z"/>
      </g>
      <g>
        <path class="cls-2" d="M315.87,388.55c1.33,0,2.25.44,2.25,1.79s-.92,1.76-2.25,1.76h-.59v2.25h-1.2v-5.8Zm-.59,1v1.61h.56c.55,0,1-.19,1-.8s-.45-.81-1-.81Z"/>
        <path class="cls-2" d="M321.3,390.05v.73a1.23,1.23,0,0,1,1.2-.73h.65V391h-.82c-.73,0-1,.34-1,1.18v1.34h1.56v.86H319.1v-.86h1.07v-2.57H319.1v-.87Z"/>
        <path class="cls-2" d="M326.25,394.46a2.27,2.27,0,1,1,2.05-2.26A2,2,0,0,1,326.25,394.46Zm0-3.66c-.55,0-.91.41-.91,1.4s.36,1.41.91,1.41.9-.42.9-1.41S326.8,390.8,326.25,390.8Z"/>
        <path class="cls-2" d="M332.22,388.55h1.15v5.8h-1.14v-.53a1.18,1.18,0,0,1-1.1.64c-1,0-1.74-.78-1.74-2.25s.76-2.26,1.74-2.26a1.18,1.18,0,0,1,1.1.64Zm-.84,2.25c-.55,0-.85.54-.85,1.41s.3,1.4.85,1.4.88-.5.88-1.4S331.93,390.8,331.38,390.8Z"/>
        <path class="cls-2" d="M337.3,393.88a1.25,1.25,0,0,1-1.1.58c-1,0-1.45-.67-1.45-1.7v-2.71h1.16v2.52c0,.45,0,1,.63,1s.76-.58.76-1.23v-2.29h1.15v4.3H337.3Z"/>
        <path class="cls-2" d="M343.65,391.6h-1.09c-.06-.45-.28-.8-.79-.8s-.83.44-.83,1.41.32,1.4.83,1.4c.35,0,.71-.18.81-.83h1.11a1.88,1.88,0,0,1-1.94,1.68,2.27,2.27,0,0,1,0-4.51A1.81,1.81,0,0,1,343.65,391.6Z"/>
        <path class="cls-2" d="M345.9,388.9h1.15v1.15h1.68v.87h-1.68V393c0,.41.13.49.47.49h1.19v.86H347.1c-.94,0-1.2-.31-1.2-1.17v-2.26h-1.25v-.87h1.25Z"/>
      </g>
      <g>
        <rect class="cls-3" x="369.39" y="383" width="33.74" height="17.13" transform="translate(772.52 783.13) rotate(180)"/>
        <path class="cls-5" d="M403.63,400.63H368.89V382.5h34.74Zm-33.74-1h32.74V383.5H369.89Z"/>
      </g>
      <g>
        <rect class="cls-3" x="268.19" y="400.13" width="25.83" height="17.13" transform="translate(562.21 817.39) rotate(180)"/>
        <path class="cls-5" d="M294.52,417.76H267.69V399.63h26.83Zm-25.83-1h24.83V400.63H268.69Z"/>
      </g>
      <g>
        <rect class="cls-3" x="294.02" y="400.13" width="75.37" height="17.13" transform="translate(663.41 817.39) rotate(180)"/>
        <path class="cls-5" d="M369.89,417.76H293.52V399.63h76.37Zm-75.37-1h74.37V400.63H294.52Z"/>
      </g>
      <g>
        <rect class="cls-3" x="369.39" y="400.13" width="33.74" height="17.13" transform="translate(772.52 817.39) rotate(180)"/>
        <path class="cls-5" d="M403.63,417.76H368.89V399.63h34.74Zm-33.74-1h32.74V400.63H369.89Z"/>
      </g>
      <g>
        <rect class="cls-3" x="268.19" y="417.26" width="25.83" height="17.13" transform="translate(562.21 851.65) rotate(180)"/>
        <path class="cls-5" d="M294.52,434.89H267.69V416.76h26.83Zm-25.83-1h24.83V417.76H268.69Z"/>
      </g>
      <g>
        <rect class="cls-3" x="294.02" y="417.26" width="75.37" height="17.13" transform="translate(663.41 851.65) rotate(180)"/>
        <path class="cls-5" d="M369.89,434.89H293.52V416.76h76.37Zm-75.37-1h74.37V417.76H294.52Z"/>
      </g>
      <g>
        <rect class="cls-3" x="369.39" y="417.26" width="33.74" height="17.13" transform="translate(772.52 851.65) rotate(180)"/>
        <path class="cls-5" d="M403.63,434.89H368.89V416.76h34.74Zm-33.74-1h32.74V417.76H369.89Z"/>
      </g>
      <g>
        <path class="cls-2" d="M378.59,388.45a1.9,1.9,0,0,1,2,1.83h-1.15a.91.91,0,0,0-.92-.91.67.67,0,0,0-.75.65c0,.37.21.64.72.77l.51.12c.77.2,1.71.57,1.71,1.75a1.8,1.8,0,0,1-2,1.8,2.13,2.13,0,0,1-2.26-2h1.16c.09.66.45,1.11,1.07,1.11a.71.71,0,0,0,.8-.69c0-.43-.28-.71-.85-.86l-.59-.16a1.71,1.71,0,1,1,.52-3.38Z"/>
        <path class="cls-2" d="M382,394.35v-.86h1.24v-2.58H382v-.86h2.39v3.44h1.26v.86Zm2.39-5.8v1.07h-1.15v-1.07Z"/>
        <path class="cls-2" d="M387.11,393.51l2.23-2.59h-2.07v-.87h3.38v.84l-2.25,2.6h2.3v.86h-3.59Z"/>
        <path class="cls-2" d="M393.16,392.5c0,.79.47,1.14.95,1.14a.76.76,0,0,0,.82-.63H396a1.8,1.8,0,0,1-1.92,1.45,2,2,0,0,1-2-2.22,2,2,0,0,1,2-2.29c1.3,0,2.06,1,2,2.55Zm0-.73H395c0-.78-.48-1-.94-1A1,1,0,0,0,393.16,391.77Z"/>
      </g>
      <path class="cls-2" d="M280.87,405.54v5.17h1.21v.63h-3.43v-.63h1.48V406.8h-1.48v-.5c1,0,1.44-.13,1.74-.76Z"/>
      <path class="cls-2" d="M282.18,424.13c0,1.34-1.3,2.52-2.78,3.71h2.88v.63h-3.91v-.63c1.95-1.52,3-2.6,3-3.62a.94.94,0,0,0-1-1c-.6,0-1.15.37-1.16,1.32h-.75a1.84,1.84,0,0,1,1.92-1.94A1.58,1.58,0,0,1,282.18,424.13Z"/>
      <path class="cls-2" d="M386,409.34l-.85-3.06v5.06h-.76v-5.8h1.19l.8,3,.8-3h1.19v5.8h-.76v-5.06l-.85,3.06Z"/>
      <path class="cls-2" d="M385.93,426.47l-.85-3.06v5.06h-.76v-5.8h1.19l.8,3,.8-3h1.19v5.8h-.76v-5.06l-.85,3.06Z"/>
      <g>
        <path class="cls-2" d="M322.66,405.46v4c0,1.26-.56,1.94-1.69,1.94a1.69,1.69,0,0,1-1.73-1.89H320c0,.81.3,1.2,1,1.2s.93-.21.93-1.26v-3.23h-2.23v-.72Z"/>
        <path class="cls-2" d="M324.32,409.13a2,2,0,0,1,1.95-2.25c1.26,0,2,.92,1.92,2.45H325.1c0,.87.48,1.43,1.16,1.43a1,1,0,0,0,1.11-.79h.76a1.77,1.77,0,0,1-1.86,1.39C325,411.36,324.32,410.4,324.32,409.13Zm.79-.4h2.3a1.1,1.1,0,0,0-1.14-1.24C325.58,407.49,325.14,407.89,325.11,408.73Z"/>
        <path class="cls-2" d="M329.59,410.14c0-1,1.08-1.33,2.84-1.53v-.18a.85.85,0,0,0-1-1,.89.89,0,0,0-1,.86h-.75a1.65,1.65,0,0,1,1.78-1.45c1.19,0,1.71.53,1.69,1.72v1.05a15.07,15.07,0,0,0,.06,1.62h-.71v-.63a1.59,1.59,0,0,1-1.52.73A1.25,1.25,0,0,1,329.59,410.14Zm2.9-.94c-1.31.13-2.11.31-2.11.93,0,.4.29.64.81.64s1.3-.31,1.3-1.45Z"/>
        <path class="cls-2" d="M335.65,407.57a1.34,1.34,0,0,1,1.26-.68c1,0,1.35.69,1.35,1.64v2.73h-.73v-2.48c0-.69-.06-1.27-.86-1.27s-1,.5-1,1.42v2.33h-.74V407h.74Z"/>
        <path class="cls-2" d="M342.64,408.13c-.1-.48-.47-.63-1-.63s-.86.16-.86.55.22.48.64.57l.48.1c.75.14,1.55.42,1.55,1.29s-.79,1.35-1.72,1.35A1.62,1.62,0,0,1,340,410h.78a.89.89,0,0,0,1,.79c.46,0,1-.16,1-.67s-.36-.6-.9-.69l-.54-.11c-.68-.13-1.21-.47-1.21-1.21s.9-1.19,1.62-1.19a1.59,1.59,0,0,1,1.7,1.24Z"/>
      </g>
      <g>
        <path class="cls-2" d="M317.54,426l2.07-2.77h.89l-1.75,2.26,2,3.53h-.87l-1.6-2.89-.72.93v2h-.76V423.2h.76Z"/>
        <path class="cls-2" d="M325.34,426.26V429h-.73v-2.48c0-.69-.05-1.27-.85-1.27s-1,.5-1,1.42V429H322V423.2h.74v2.1a1.36,1.36,0,0,1,1.27-.68C325,424.62,325.34,425.31,325.34,426.26Z"/>
        <path class="cls-2" d="M327,427.87c0-1,1.09-1.33,2.85-1.52v-.19a.85.85,0,0,0-1-1,.88.88,0,0,0-1,.85h-.75a1.64,1.64,0,0,1,1.78-1.45c1.19,0,1.7.53,1.69,1.72v1.05c0,.72,0,1.34.05,1.62h-.7v-.63a1.57,1.57,0,0,1-1.51.74A1.26,1.26,0,0,1,327,427.87Zm2.9-.94c-1.31.13-2.11.31-2.11.93,0,.41.3.65.82.65s1.29-.32,1.29-1.46Z"/>
        <path class="cls-2" d="M333.12,423.2v3.45l1.9-2h1l-1.69,1.67,1.86,2.63h-.84l-1.52-2.14-.66.66V429h-.73V423.2Z"/>
        <path class="cls-2" d="M339.61,424.69v3.67h1.22V429h-3.17v-.63h1.21v-3h-1.21v-.63Zm0-1.49v.87h-.74v-.87Z"/>
        <path class="cls-2" d="M345.22,425.87c-.09-.48-.47-.64-1-.64s-.86.17-.86.55.22.49.65.57l.48.1c.74.14,1.54.42,1.54,1.29s-.78,1.36-1.72,1.36a1.63,1.63,0,0,1-1.76-1.39h.78a.9.9,0,0,0,1,.78c.45,0,1-.16,1-.66s-.36-.6-.91-.7l-.53-.1c-.68-.14-1.22-.48-1.22-1.22s.91-1.19,1.63-1.19a1.58,1.58,0,0,1,1.69,1.25Z"/>
      </g>
    </g>
    <g>
      <g>
        <g>
          <path class="cls-4" d="M453.76,414.4c-9.61,0-18.51-.93-22.67-2.38-2.17-.38-2.17-1-2.17-1.25V400.1h49.69v10.7c0,.18,0,.82-2.07,1.19C472.32,413.46,463.41,414.4,453.76,414.4Z"/>
          <path class="cls-2" d="M478.11,400.6v10h0v.16c0,.22-.55.51-1.66.71l-.08,0-.07,0c-4.1,1.43-12.94,2.36-22.54,2.36s-18.39-.92-22.5-2.35l-.08,0-.08,0c-1.12-.2-1.65-.5-1.68-.71h0V400.6h48.69m1-1H428.42v11.17c0,.92.9,1.44,2.51,1.73,4.1,1.42,12.78,2.4,22.83,2.4s18.78-1,22.87-2.41c1.59-.29,2.48-.82,2.48-1.72V399.6Z"/>
        </g>
        <g>
          <path class="cls-4" d="M453.76,403.32c-17.7,0-24.84-2.64-24.84-3.74s7.14-3.75,24.84-3.75,24.85,2.64,24.85,3.75S471.46,403.32,453.76,403.32Z"/>
          <path class="cls-2" d="M453.76,396.33c14.73,0,23.34,2,24.31,3.25-1,1.21-9.58,3.24-24.31,3.24s-23.33-2-24.3-3.24c1-1.21,9.57-3.25,24.3-3.25m0-1c-14,0-25.34,1.9-25.34,4.25s11.34,4.24,25.34,4.24,25.35-1.9,25.35-4.24-11.35-4.25-25.35-4.25Z"/>
        </g>
      </g>
      <g>
        <g>
          <path class="cls-4" d="M453.76,403.21c-9.6,0-18.5-.93-22.67-2.37-2.17-.39-2.17-1-2.17-1.25V388.92h49.69v10.69c0,.19,0,.83-2.07,1.2C472.32,402.28,463.41,403.21,453.76,403.21Z"/>
          <path class="cls-2" d="M478.11,389.42v10h0v.16c0,.21-.55.51-1.66.71h-.08l-.07,0c-4.1,1.43-12.94,2.35-22.54,2.35s-18.39-.92-22.5-2.34l-.08,0h-.08c-1.12-.2-1.65-.5-1.68-.72h0V389.42h48.69m1-1H428.42v11.17c0,.91.9,1.44,2.51,1.72,4.1,1.42,12.78,2.4,22.83,2.4s18.78-1,22.87-2.41c1.59-.29,2.48-.81,2.48-1.71V388.42Z"/>
        </g>
        <g>
          <ellipse class="cls-4" cx="453.76" cy="388.39" rx="24.85" ry="3.75"/>
          <path class="cls-2" d="M453.76,385.15c14.73,0,23.34,2,24.31,3.24-1,1.21-9.58,3.25-24.31,3.25s-23.33-2-24.3-3.25c1-1.21,9.57-3.24,24.3-3.24m0-1c-14,0-25.34,1.9-25.34,4.24s11.34,4.25,25.34,4.25,25.35-1.9,25.35-4.25-11.35-4.24-25.35-4.24Z"/>
        </g>
      </g>
      <g>
        <g>
          <path class="cls-4" d="M453.76,392c-9.61,0-18.51-.93-22.67-2.37-2.17-.4-2.17-1-2.17-1.26V377.73h49.69v10.7c0,.18,0,.82-2.07,1.19C472.32,391.09,463.41,392,453.76,392Z"/>
          <path class="cls-2" d="M478.11,378.23v10h0v.16c0,.22-.55.51-1.66.71l-.08,0-.07,0c-4.1,1.43-12.94,2.36-22.54,2.36s-18.39-.92-22.5-2.35l-.08,0-.08,0c-1.12-.2-1.65-.49-1.68-.71h0V378.23h48.69m1-1H428.42V388.4c0,.92.9,1.44,2.51,1.73,4.1,1.42,12.78,2.4,22.83,2.4s18.78-1,22.87-2.41c1.59-.29,2.48-.82,2.48-1.72V377.23Z"/>
        </g>
        <g>
          <ellipse class="cls-4" cx="453.76" cy="377.21" rx="24.85" ry="3.75"/>
          <path class="cls-2" d="M453.76,374c14.73,0,23.34,2,24.31,3.25-1,1.21-9.58,3.24-24.31,3.24s-23.33-2-24.3-3.24c1-1.21,9.57-3.25,24.3-3.25m0-1c-14,0-25.34,1.9-25.34,4.25s11.34,4.24,25.34,4.24,25.35-1.9,25.35-4.24S467.76,373,453.76,373Z"/>
        </g>
      </g>
    </g>
    <g>
      <g>
        <rect class="cls-3" x="464.64" y="383" width="25.83" height="17.13" transform="translate(955.11 783.13) rotate(180)"/>
        <path class="cls-5" d="M491,400.63H464.14V382.5H491Zm-25.83-1H490V383.5H465.14Z"/>
      </g>
      <g>
        <rect class="cls-3" x="490.47" y="383" width="75.37" height="17.13" transform="translate(1056.31 783.13) rotate(180)"/>
        <path class="cls-5" d="M566.34,400.63H490V382.5h76.37Zm-75.37-1h74.37V383.5H491Z"/>
      </g>
      <g>
        <path class="cls-2" d="M472.23,388.55h3.95v1H474.8v3.73h1.38v1h-3.95v-1h1.37v-3.73h-1.37Z"/>
        <path class="cls-2" d="M478.76,388.55c1.58,0,2.8.68,2.8,2.9s-1.25,2.9-2.83,2.9H477.4v-5.8Zm-.05,1h-.11v3.84h.11c1,0,1.58-.39,1.58-1.92S479.68,389.53,478.71,389.53Z"/>
      </g>
      <g>
        <path class="cls-2" d="M512.32,388.55c1.33,0,2.25.44,2.25,1.79s-.92,1.76-2.25,1.76h-.59v2.25h-1.2v-5.8Zm-.59,1v1.61h.56c.55,0,1-.19,1-.8s-.45-.81-1-.81Z"/>
        <path class="cls-2" d="M517.76,390.05v.73a1.21,1.21,0,0,1,1.19-.73h.65V391h-.82c-.73,0-1,.34-1,1.18v1.34h1.56v.86h-3.78v-.86h1.07v-2.57h-1.07v-.87Z"/>
        <path class="cls-2" d="M522.7,394.46a2.27,2.27,0,1,1,2-2.26A2,2,0,0,1,522.7,394.46Zm0-3.66c-.55,0-.9.41-.9,1.4s.35,1.41.9,1.41.9-.42.9-1.41S523.25,390.8,522.7,390.8Z"/>
        <path class="cls-2" d="M528.67,388.55h1.15v5.8h-1.14v-.53a1.18,1.18,0,0,1-1.1.64c-1,0-1.74-.78-1.74-2.25s.76-2.26,1.74-2.26a1.18,1.18,0,0,1,1.1.64Zm-.84,2.25c-.55,0-.85.54-.85,1.41s.3,1.4.85,1.4.88-.5.88-1.4S528.38,390.8,527.83,390.8Z"/>
        <path class="cls-2" d="M533.75,393.88a1.25,1.25,0,0,1-1.1.58c-1,0-1.44-.67-1.44-1.7v-2.71h1.15v2.52c0,.45,0,1,.63,1s.76-.58.76-1.23v-2.29h1.15v4.3h-1.15Z"/>
        <path class="cls-2" d="M540.1,391.6H539c-.06-.45-.28-.8-.79-.8s-.83.44-.83,1.41.32,1.4.83,1.4c.35,0,.71-.18.82-.83h1.1a1.88,1.88,0,0,1-1.94,1.68,2.27,2.27,0,0,1,0-4.51A1.81,1.81,0,0,1,540.1,391.6Z"/>
        <path class="cls-2" d="M542.35,388.9h1.15v1.15h1.68v.87H543.5V393c0,.41.14.49.47.49h1.19v.86h-1.61c-.94,0-1.2-.31-1.2-1.17v-2.26H541.1v-.87h1.25Z"/>
      </g>
      <g>
        <rect class="cls-3" x="565.84" y="383" width="33.74" height="17.13" transform="translate(1165.42 783.13) rotate(180)"/>
        <path class="cls-5" d="M600.08,400.63H565.34V382.5h34.74Zm-33.74-1h32.74V383.5H566.34Z"/>
      </g>
      <g>
        <rect class="cls-3" x="464.64" y="400.13" width="25.83" height="17.13" transform="translate(955.11 817.39) rotate(180)"/>
        <path class="cls-5" d="M491,417.76H464.14V399.63H491Zm-25.83-1H490V400.63H465.14Z"/>
      </g>
      <g>
        <rect class="cls-3" x="490.47" y="400.13" width="75.37" height="17.13" transform="translate(1056.31 817.39) rotate(180)"/>
        <path class="cls-5" d="M566.34,417.76H490V399.63h76.37Zm-75.37-1h74.37V400.63H491Z"/>
      </g>
      <g>
        <rect class="cls-3" x="565.84" y="400.13" width="33.74" height="17.13" transform="translate(1165.42 817.39) rotate(180)"/>
        <path class="cls-5" d="M600.08,417.76H565.34V399.63h34.74Zm-33.74-1h32.74V400.63H566.34Z"/>
      </g>
      <g>
        <rect class="cls-3" x="464.64" y="417.26" width="25.83" height="17.13" transform="translate(955.11 851.65) rotate(180)"/>
        <path class="cls-5" d="M491,434.89H464.14V416.76H491Zm-25.83-1H490V417.76H465.14Z"/>
      </g>
      <g>
        <rect class="cls-3" x="490.47" y="417.26" width="75.37" height="17.13" transform="translate(1056.31 851.65) rotate(180)"/>
        <path class="cls-5" d="M566.34,434.89H490V416.76h76.37Zm-75.37-1h74.37V417.76H491Z"/>
      </g>
      <g>
        <rect class="cls-3" x="565.84" y="417.26" width="33.74" height="17.13" transform="translate(1165.42 851.65) rotate(180)"/>
        <path class="cls-5" d="M600.08,434.89H565.34V416.76h34.74Zm-33.74-1h32.74V417.76H566.34Z"/>
      </g>
      <g>
        <path class="cls-2" d="M575.05,388.45a1.9,1.9,0,0,1,2,1.83h-1.15c-.08-.57-.4-.91-.92-.91a.67.67,0,0,0-.75.65c0,.37.2.64.72.77l.51.12c.77.2,1.71.57,1.71,1.75a1.8,1.8,0,0,1-2,1.8,2.13,2.13,0,0,1-2.26-2h1.16c.09.66.45,1.11,1.07,1.11a.71.71,0,0,0,.8-.69c0-.43-.28-.71-.85-.86l-.59-.16a1.71,1.71,0,1,1,.52-3.38Z"/>
        <path class="cls-2" d="M578.4,394.35v-.86h1.25v-2.58H578.4v-.86h2.4v3.44h1.25v.86Zm2.4-5.8v1.07h-1.15v-1.07Z"/>
        <path class="cls-2" d="M583.56,393.51l2.23-2.59h-2.07v-.87h3.38v.84l-2.25,2.6h2.3v.86h-3.59Z"/>
        <path class="cls-2" d="M589.61,392.5c0,.79.47,1.14.95,1.14a.76.76,0,0,0,.82-.63h1.09a1.82,1.82,0,0,1-1.93,1.45,2,2,0,0,1-2-2.22,2,2,0,0,1,2-2.29c1.29,0,2.05,1,2,2.55Zm0-.73h1.84c0-.78-.48-1-.94-1A.94.94,0,0,0,589.61,391.77Z"/>
      </g>
      <path class="cls-2" d="M477.32,405.54v5.17h1.21v.63H475.1v-.63h1.48V406.8H475.1v-.5c1,0,1.44-.13,1.74-.76Z"/>
      <path class="cls-2" d="M478.63,424.13c0,1.34-1.3,2.52-2.78,3.71h2.88v.63h-3.91v-.63c1.95-1.52,3-2.6,3-3.62a.94.94,0,0,0-1-1c-.6,0-1.16.37-1.17,1.32h-.75a1.84,1.84,0,0,1,1.92-1.94A1.58,1.58,0,0,1,478.63,424.13Z"/>
      <path class="cls-2" d="M582,410.62h2.84v.72h-3.6v-5.8H582Z"/>
      <path class="cls-2" d="M581.94,427.75h2.84v.72h-3.6v-5.8h.76Z"/>
      <g>
        <path class="cls-2" d="M505.66,410.16l.43-4.7h.76l-.58,5.8h-1l-.67-3-.67,3h-1l-.58-5.8h.76l.43,4.7.64-2.93H505Z"/>
        <path class="cls-2" d="M509.78,406.89a2.25,2.25,0,1,1-2,2.24A2,2,0,0,1,509.78,406.89Zm0,3.86c.66,0,1.22-.48,1.22-1.62s-.56-1.63-1.22-1.63-1.22.48-1.22,1.63S509.12,410.75,509.78,410.75Z"/>
        <path class="cls-2" d="M515,407v.77a1.21,1.21,0,0,1,1.15-.77h.73v.67h-.72c-.83,0-1.15.54-1.15,1.49v1.51h1.47v.63h-3.42v-.63h1.22v-3h-1.23V407Z"/>
        <path class="cls-2" d="M519.24,405.46v3.46l1.9-2h.94l-1.68,1.67,1.85,2.63h-.84l-1.51-2.14-.66.65v1.49h-.74v-5.8Z"/>
        <path class="cls-2" d="M530.26,405.46c1.27,0,2.25.35,2.25,1.79s-1,1.78-2.25,1.78h-.66v2.23h-.76v-5.8Zm-.66.72v2.13h.76c.77,0,1.36-.12,1.36-1.06s-.59-1.07-1.36-1.07Z"/>
        <path class="cls-2" d="M533.79,410.14c0-1,1.09-1.33,2.84-1.53v-.18a.85.85,0,0,0-1-1,.89.89,0,0,0-1,.86h-.75a1.65,1.65,0,0,1,1.79-1.45c1.19,0,1.7.53,1.68,1.72v1.05c0,.72,0,1.33.06,1.62h-.7v-.63a1.56,1.56,0,0,1-1.51.73A1.25,1.25,0,0,1,533.79,410.14Zm2.9-.94c-1.31.13-2.11.31-2.11.93,0,.4.3.64.82.64s1.29-.31,1.29-1.45Z"/>
        <path class="cls-2" d="M539.85,407.57a1.36,1.36,0,0,1,1.27-.68c1,0,1.35.69,1.35,1.64v2.73h-.74v-2.48c0-.69-.06-1.27-.85-1.27s-1,.5-1,1.42v2.33h-.73V407h.73Z"/>
        <path class="cls-2" d="M545,405.88h.73V407h1.76v.63h-1.76v2.49c0,.44,0,.55.44.55h1.32v.63H546c-.79,0-1-.18-1-1.08v-2.59h-1.23V407H545Z"/>
        <path class="cls-2" d="M552,408.13c-.09-.48-.47-.63-1-.63s-.86.16-.86.55.22.48.65.57l.48.1c.74.14,1.54.42,1.54,1.29s-.78,1.35-1.72,1.35a1.62,1.62,0,0,1-1.76-1.39h.78a.9.9,0,0,0,1,.79c.45,0,1-.16,1-.67s-.37-.6-.91-.69l-.53-.11c-.68-.13-1.22-.47-1.22-1.21s.9-1.19,1.62-1.19a1.59,1.59,0,0,1,1.7,1.24Z"/>
      </g>
      <g>
        <path class="cls-2" d="M499.57,426.55h-1.08V429h-.76V423.2h1.42c1.26,0,2.24.27,2.24,1.65a1.43,1.43,0,0,1-1.05,1.55l1.23,2.59h-.86Zm-1.08-2.63v1.92h.75c.76,0,1.36-.08,1.36-1s-.6-.95-1.36-.95Z"/>
        <path class="cls-2" d="M505.05,424.69v3.67h1.23V429H503.1v-.63h1.22v-3H503.1v-.63Zm0-1.49v.87h-.73v-.87Z"/>
        <path class="cls-2" d="M508.81,425.34a1.36,1.36,0,0,1,1.27-.72c1,0,1.74.82,1.74,2.24s-.74,2.24-1.74,2.24a1.39,1.39,0,0,1-1.27-.71v2h-.73v-5.7h.73Zm1.12,3.15c.74,0,1.11-.61,1.11-1.63s-.37-1.62-1.11-1.62-1.15.48-1.15,1.62S509.32,428.49,509.93,428.49Z"/>
        <path class="cls-2" d="M514,425.34a1.36,1.36,0,0,1,1.27-.72c1,0,1.74.82,1.74,2.24s-.75,2.24-1.74,2.24a1.39,1.39,0,0,1-1.27-.71v2h-.73v-5.7H514Zm1.12,3.15c.73,0,1.11-.61,1.11-1.63s-.38-1.62-1.11-1.62-1.15.48-1.15,1.62S514.48,428.49,515.1,428.49Z"/>
        <path class="cls-2" d="M518.19,426.86a2,2,0,0,1,1.95-2.25c1.26,0,2,.92,1.92,2.46H519c0,.86.48,1.43,1.16,1.43a1.06,1.06,0,0,0,1.12-.79H522a1.78,1.78,0,0,1-1.86,1.39C518.84,429.1,518.19,428.13,518.19,426.86Zm.78-.4h2.31a1.11,1.11,0,0,0-1.14-1.24C519.44,425.22,519,425.63,519,426.46Z"/>
        <path class="cls-2" d="M526.25,423.2H527V429h-.73v-.6a1.38,1.38,0,0,1-1.27.71c-1,0-1.73-.82-1.73-2.24s.74-2.24,1.73-2.24a1.35,1.35,0,0,1,1.27.72Zm-1.12,2c-.73,0-1.11.6-1.11,1.62s.38,1.63,1.11,1.63,1.15-.5,1.15-1.63S525.75,425.24,525.13,425.24Z"/>
        <path class="cls-2" d="M537.19,423.2v3.95c0,1.27-.55,2-1.68,2a1.69,1.69,0,0,1-1.73-1.9h.76c0,.81.3,1.2,1,1.2s.93-.21.93-1.25v-3.23H534.2v-.72Z"/>
        <path class="cls-2" d="M538.86,426.86a2,2,0,0,1,1.95-2.25c1.26,0,2,.92,1.92,2.46h-3.09c0,.86.48,1.43,1.16,1.43a1,1,0,0,0,1.11-.79h.76a1.78,1.78,0,0,1-1.86,1.39C539.51,429.1,538.86,428.13,538.86,426.86Zm.78-.4H542a1.11,1.11,0,0,0-1.14-1.24C540.12,425.22,539.68,425.63,539.64,426.46Z"/>
        <path class="cls-2" d="M544.12,427.87c0-1,1.09-1.33,2.85-1.52v-.19a.85.85,0,0,0-1-1,.88.88,0,0,0-1,.85h-.75A1.65,1.65,0,0,1,546,424.6c1.19,0,1.7.53,1.69,1.72v1.05a14.94,14.94,0,0,0,.06,1.62H547v-.63a1.6,1.6,0,0,1-1.52.74A1.26,1.26,0,0,1,544.12,427.87Zm2.91-.94c-1.31.13-2.11.31-2.11.93,0,.41.29.65.81.65s1.3-.32,1.3-1.46Z"/>
        <path class="cls-2" d="M550.19,425.3a1.33,1.33,0,0,1,1.26-.68c1,0,1.35.69,1.35,1.64V429h-.73v-2.48c0-.69-.06-1.27-.86-1.27s-1,.5-1,1.42V429h-.74v-4.3h.74Z"/>
        <path class="cls-2" d="M557.18,425.87c-.1-.48-.47-.64-1-.64s-.86.17-.86.55.22.49.64.57l.48.1c.75.14,1.55.42,1.55,1.29s-.79,1.36-1.72,1.36a1.63,1.63,0,0,1-1.76-1.39h.77a.9.9,0,0,0,1,.78c.46,0,1-.16,1-.66s-.36-.6-.9-.7l-.54-.1c-.68-.14-1.21-.48-1.21-1.22s.9-1.19,1.62-1.19a1.59,1.59,0,0,1,1.7,1.25Z"/>
      </g>
    </g>
  </g>
</svg>
