<svg xmlns="http://www.w3.org/2000/svg" viewBox="0 0 640 420">
  <defs>
    <style>
      .cls-1 {
        fill: #fffae5;
      }

      .cls-2 {
        fill: #10162f;
      }

      .cls-3 {
        fill: #f866ff;
      }

      .cls-4 {
        fill: #fff;
      }
    </style>
  </defs>
  <g id="BG">
    <g>
      <rect class="cls-1" x="0.5" y="0.5" width="639" height="419"/>
      <path class="cls-2" d="M639,1V419H1V1H639m1-1H0V420H640V0Z"/>
    </g>
  </g>
  <g id="Layer_4" data-name="Layer 4">
    <g>
      <g>
        <g>
          <path class="cls-3" d="M86.94,280.06c-17.12,0-33-1.67-40.42-4.24-4.14-.74-4.14-2.14-4.14-2.6V253.87H131.5v19.27c0,.54,0,1.91-4,2.64C120,278.38,104.12,280.06,86.94,280.06Z"/>
          <path class="cls-2" d="M131,254.37V273l1,.12-1,0v.21h0c0,.92-1.24,1.6-3.59,2l-.08,0-.07,0c-7.36,2.58-23.19,4.24-40.32,4.24s-32.87-1.66-40.26-4.21l-.07,0h-.08c-2.39-.43-3.62-1.11-3.65-2.05a.34.34,0,0,0,0-.1V254.37H131m1-1H41.88V273s0,.07,0,.11,0,.07,0,.1c0,1.63,1.61,2.57,4.47,3.07,7.29,2.53,22.73,4.27,40.59,4.27s33.39-1.75,40.65-4.29c2.82-.51,4.41-1.44,4.41-3,0,0,0-.06,0-.1s0-.07,0-.11V253.37Z"/>
        </g>
        <g>
          <path class="cls-3" d="M86.94,260.37c-26.26,0-44.56-3.71-44.56-7s18.3-7.05,44.56-7.05,44.56,3.71,44.56,7.05S113.2,260.37,86.94,260.37Z"/>
          <path class="cls-2" d="M86.94,246.78A202.83,202.83,0,0,1,118.63,249C130.85,251,131,253.3,131,253.32s-.15,2.31-12.37,4.36a202.83,202.83,0,0,1-31.69,2.19,203.06,203.06,0,0,1-31.7-2.19c-12.22-2.05-12.36-4.33-12.36-4.36S43,251,55.24,249a203.06,203.06,0,0,1,31.7-2.19m0-1c-24.89,0-45.06,3.38-45.06,7.54s20.17,7.55,45.06,7.55S132,257.49,132,253.32s-20.18-7.54-45.06-7.54Z"/>
        </g>
      </g>
      <g>
        <g>
          <path class="cls-3" d="M86.94,260.17c-17.12,0-33-1.66-40.42-4.23-4.14-.74-4.14-2.14-4.14-2.6V234H131.5v19.28c0,.54,0,1.91-4,2.63C120,258.5,104.12,260.17,86.94,260.17Z"/>
          <path class="cls-2" d="M131,234.48v18.61l1,.12-1-.06v.22h0c0,.93-1.24,1.61-3.59,2l-.08,0-.07,0c-7.36,2.57-23.19,4.24-40.32,4.24S54.07,258,46.68,255.46l-.07,0-.08,0c-2.39-.42-3.62-1.11-3.65-2a.28.28,0,0,0,0-.09v-18.8H131m1-1H41.88v19.65s0,.07,0,.11,0,.07,0,.1c0,1.63,1.61,2.56,4.47,3.07,7.29,2.52,22.73,4.27,40.59,4.27s33.39-1.76,40.65-4.29c2.82-.51,4.41-1.44,4.41-3,0,0,0-.07,0-.1s0-.08,0-.11V233.48Z"/>
        </g>
        <g>
          <path class="cls-3" d="M86.94,240.49c-26.26,0-44.56-3.71-44.56-7.05s18.3-7.05,44.56-7.05,44.56,3.72,44.56,7.05S113.2,240.49,86.94,240.49Z"/>
          <path class="cls-2" d="M86.94,226.89a202.71,202.71,0,0,1,31.69,2.2c12.22,2,12.37,4.33,12.37,4.35s-.15,2.31-12.37,4.35A201.49,201.49,0,0,1,86.94,240a201.72,201.72,0,0,1-31.7-2.2c-12.22-2-12.36-4.32-12.36-4.35s.14-2.3,12.36-4.35a202.94,202.94,0,0,1,31.7-2.2m0-1c-24.89,0-45.06,3.38-45.06,7.55S62.05,241,86.94,241,132,237.61,132,233.44s-20.18-7.55-45.06-7.55Z"/>
        </g>
      </g>
      <g>
        <g>
          <path class="cls-3" d="M86.94,240.29c-17.12,0-33-1.66-40.42-4.24-4.14-.73-4.14-2.13-4.14-2.59V214.1H131.5v19.28c0,.53,0,1.91-4,2.63C120,238.62,104.12,240.29,86.94,240.29Z"/>
          <path class="cls-2" d="M131,214.6v18.61l1,.12-1-.06v.22h0c0,.92-1.24,1.61-3.59,2l-.08,0-.07,0c-7.36,2.57-23.19,4.23-40.32,4.23s-32.87-1.65-40.26-4.21l-.07,0-.08,0c-2.39-.42-3.62-1.11-3.65-2a.28.28,0,0,0,0-.09V214.6H131m1-1H41.88v19.65s0,.07,0,.11,0,.07,0,.1c0,1.63,1.61,2.56,4.47,3.07,7.29,2.52,22.73,4.26,40.59,4.26s33.39-1.75,40.65-4.28c2.82-.51,4.41-1.45,4.41-3,0,0,0-.07,0-.1s0-.08,0-.11V213.6Z"/>
        </g>
        <g>
          <path class="cls-3" d="M86.94,220.61c-26.26,0-44.56-3.71-44.56-7.05s18.3-7.05,44.56-7.05,44.56,3.72,44.56,7.05S113.2,220.61,86.94,220.61Z"/>
          <path class="cls-2" d="M86.94,207a201.49,201.49,0,0,1,31.69,2.2c12.22,2,12.37,4.33,12.37,4.35s-.15,2.3-12.37,4.35a201.49,201.49,0,0,1-31.69,2.2,201.72,201.72,0,0,1-31.7-2.2c-12.22-2-12.36-4.33-12.36-4.35s.14-2.3,12.36-4.35a201.72,201.72,0,0,1,31.7-2.2m0-1c-24.89,0-45.06,3.38-45.06,7.55s20.17,7.55,45.06,7.55S132,217.73,132,213.56,111.82,206,86.94,206Z"/>
        </g>
      </g>
    </g>
    <g>
      <g>
        <g>
          <path class="cls-3" d="M296.89,280.06c-17.12,0-33-1.67-40.42-4.24-4.14-.74-4.14-2.14-4.14-2.6V253.87h89.12v19.28c0,.53,0,1.9-4,2.63C330,278.38,314.08,280.06,296.89,280.06Z"/>
          <path class="cls-2" d="M341,254.37V273l1,.12-1,0v.21h0c0,.92-1.24,1.6-3.59,2l-.08,0-.07,0c-7.36,2.58-23.19,4.24-40.32,4.24s-32.87-1.66-40.26-4.21l-.07,0h-.08c-2.39-.43-3.62-1.11-3.65-2.05a.34.34,0,0,0,0-.1V254.37H341m1-1H251.83V273s0,.07,0,.11,0,.07,0,.1c0,1.63,1.61,2.57,4.47,3.07,7.29,2.53,22.73,4.27,40.59,4.27s33.39-1.75,40.65-4.29c2.82-.51,4.41-1.44,4.41-3,0,0,0-.06,0-.1s0-.07,0-.11V253.37Z"/>
        </g>
        <g>
          <path class="cls-3" d="M296.89,260.37c-26.26,0-44.56-3.71-44.56-7s18.3-7.05,44.56-7.05,44.56,3.71,44.56,7.05S323.15,260.37,296.89,260.37Z"/>
          <path class="cls-2" d="M296.89,246.78A202.83,202.83,0,0,1,328.58,249C340.8,251,341,253.3,341,253.32s-.15,2.31-12.37,4.36a202.83,202.83,0,0,1-31.69,2.19,203.06,203.06,0,0,1-31.7-2.19c-12.22-2.05-12.36-4.33-12.36-4.36S253,251,265.19,249a203.06,203.06,0,0,1,31.7-2.19m0-1c-24.88,0-45.06,3.38-45.06,7.54s20.18,7.55,45.06,7.55S342,257.49,342,253.32s-20.18-7.54-45.06-7.54Z"/>
        </g>
      </g>
      <g>
        <g>
          <path class="cls-3" d="M296.89,260.17c-17.12,0-33-1.66-40.42-4.23-4.14-.74-4.14-2.14-4.14-2.6V234h89.12v19.29c0,.53,0,1.9-4,2.62C330,258.5,314.08,260.17,296.89,260.17Z"/>
          <path class="cls-2" d="M341,234.48v18.61l1,.12-1-.06v.22h0c0,.93-1.24,1.61-3.59,2l-.08,0-.07,0c-7.36,2.57-23.19,4.24-40.32,4.24S264,258,256.63,255.46l-.07,0-.08,0c-2.39-.42-3.62-1.11-3.65-2a.28.28,0,0,0,0-.09v-18.8H341m1-1H251.83v19.65s0,.07,0,.11,0,.07,0,.1c0,1.63,1.61,2.56,4.47,3.07,7.29,2.52,22.73,4.27,40.59,4.27s33.39-1.76,40.65-4.29c2.82-.51,4.41-1.44,4.41-3,0,0,0-.07,0-.1s0-.08,0-.11V233.48Z"/>
        </g>
        <g>
          <path class="cls-3" d="M296.89,240.49c-26.26,0-44.56-3.71-44.56-7.05s18.3-7.05,44.56-7.05,44.56,3.72,44.56,7.05S323.15,240.49,296.89,240.49Z"/>
          <path class="cls-2" d="M296.89,226.89a202.71,202.71,0,0,1,31.69,2.2c12.22,2,12.37,4.33,12.37,4.35s-.15,2.31-12.37,4.35a201.49,201.49,0,0,1-31.69,2.2,201.72,201.72,0,0,1-31.7-2.2c-12.22-2-12.36-4.32-12.36-4.35s.14-2.3,12.36-4.35a202.94,202.94,0,0,1,31.7-2.2m0-1c-24.88,0-45.06,3.38-45.06,7.55S272,241,296.89,241,342,237.61,342,233.44s-20.18-7.55-45.06-7.55Z"/>
        </g>
      </g>
      <g>
        <g>
          <path class="cls-3" d="M296.89,240.29c-17.12,0-33-1.66-40.42-4.24-4.14-.73-4.14-2.13-4.14-2.59V214.1h89.12v19.29c0,.52,0,1.9-4,2.62C330,238.62,314.08,240.29,296.89,240.29Z"/>
          <path class="cls-2" d="M341,214.6v18.61l1,.12-1-.06v.22h0c0,.92-1.24,1.61-3.59,2l-.08,0-.07,0c-7.36,2.57-23.19,4.23-40.32,4.23s-32.87-1.65-40.26-4.21l-.07,0-.08,0c-2.39-.42-3.62-1.11-3.65-2a.28.28,0,0,0,0-.09V214.6H341m1-1H251.83v19.65s0,.07,0,.11,0,.07,0,.1c0,1.63,1.61,2.56,4.47,3.07,7.29,2.52,22.73,4.26,40.59,4.26s33.39-1.75,40.65-4.28c2.82-.51,4.41-1.45,4.41-3,0,0,0-.07,0-.1s0-.08,0-.11V213.6Z"/>
        </g>
        <g>
          <path class="cls-3" d="M296.89,220.61c-26.26,0-44.56-3.71-44.56-7.05s18.3-7.05,44.56-7.05,44.56,3.72,44.56,7.05S323.15,220.61,296.89,220.61Z"/>
          <path class="cls-2" d="M296.89,207a201.49,201.49,0,0,1,31.69,2.2c12.22,2,12.37,4.33,12.37,4.35s-.15,2.3-12.37,4.35a201.49,201.49,0,0,1-31.69,2.2,201.72,201.72,0,0,1-31.7-2.2c-12.22-2-12.36-4.33-12.36-4.35s.14-2.3,12.36-4.35a201.72,201.72,0,0,1,31.7-2.2m0-1c-24.88,0-45.06,3.38-45.06,7.55s20.18,7.55,45.06,7.55S342,217.73,342,213.56,321.77,206,296.89,206Z"/>
        </g>
      </g>
    </g>
    <g>
      <g>
        <g>
          <path class="cls-3" d="M424.51,280.06c-17.12,0-33-1.67-40.42-4.24-4.13-.74-4.13-2.14-4.13-2.6V253.87h89.11v19.37c0,.44,0,1.81-4,2.54C457.59,278.38,441.7,280.06,424.51,280.06Z"/>
          <path class="cls-2" d="M468.57,254.37V273l1,.12-1,0v.21h0c0,.92-1.23,1.6-3.59,2l-.07,0-.08,0c-7.36,2.58-23.18,4.24-40.32,4.24s-32.87-1.66-40.25-4.21l-.08,0h-.08c-2.39-.43-3.62-1.11-3.64-2.05V254.37h88.11m1-1H379.46v19.85c0,1.63,1.6,2.57,4.47,3.07,7.29,2.53,22.72,4.27,40.58,4.27s33.39-1.75,40.65-4.29c2.83-.51,4.41-1.44,4.41-3,0,0,0-.06,0-.1s0-.07,0-.11V253.37Z"/>
        </g>
        <g>
          <path class="cls-3" d="M424.51,260.37c-26.26,0-44.55-3.71-44.55-7s18.29-7.05,44.55-7.05,44.56,3.71,44.56,7.05S450.77,260.37,424.51,260.37Z"/>
          <path class="cls-2" d="M424.51,246.78a203.06,203.06,0,0,1,31.7,2.19c12.22,2.05,12.36,4.33,12.36,4.35s-.14,2.31-12.36,4.36a230.45,230.45,0,0,1-63.39,0c-12.22-2.05-12.36-4.33-12.36-4.36s.14-2.3,12.36-4.35a202.92,202.92,0,0,1,31.69-2.19m0-1c-24.88,0-45.05,3.38-45.05,7.54s20.17,7.55,45.05,7.55,45.06-3.38,45.06-7.55-20.17-7.54-45.06-7.54Z"/>
        </g>
      </g>
      <g>
        <g>
          <path class="cls-3" d="M424.51,260.17c-17.12,0-33-1.66-40.42-4.23-4.13-.74-4.13-2.14-4.13-2.6V234h89.11v19.37c0,.45,0,1.82-4,2.54C457.59,258.5,441.7,260.17,424.51,260.17Z"/>
          <path class="cls-2" d="M468.57,234.48v18.61l1,.12-1-.05v.21h0c0,.93-1.23,1.61-3.59,2l-.07,0-.08,0c-7.36,2.57-23.18,4.24-40.32,4.24s-32.87-1.66-40.25-4.22l-.08,0-.08,0c-2.39-.42-3.62-1.11-3.64-2V234.48h88.11m1-1H379.46v19.86c0,1.63,1.6,2.56,4.47,3.07,7.29,2.52,22.72,4.27,40.58,4.27s33.39-1.76,40.65-4.29c2.83-.51,4.41-1.44,4.41-3,0,0,0-.07,0-.1s0-.08,0-.11V233.48Z"/>
        </g>
        <g>
          <path class="cls-3" d="M424.51,240.49c-26.26,0-44.55-3.71-44.55-7.05s18.29-7.05,44.55-7.05,44.56,3.72,44.56,7.05S450.77,240.49,424.51,240.49Z"/>
          <path class="cls-2" d="M424.51,226.89a202.94,202.94,0,0,1,31.7,2.2c12.22,2,12.36,4.33,12.36,4.35s-.14,2.31-12.36,4.35a229.41,229.41,0,0,1-63.39,0c-12.22-2-12.36-4.32-12.36-4.35s.14-2.3,12.36-4.35a202.8,202.8,0,0,1,31.69-2.2m0-1c-24.88,0-45.05,3.38-45.05,7.55S399.63,241,424.51,241s45.06-3.38,45.06-7.55-20.17-7.55-45.06-7.55Z"/>
        </g>
      </g>
      <g>
        <g>
          <path class="cls-3" d="M424.51,240.29c-17.12,0-33-1.66-40.42-4.24-4.13-.73-4.13-2.13-4.13-2.59V214.1h89.11v19.37c0,.44,0,1.82-4,2.54C457.59,238.62,441.7,240.29,424.51,240.29Z"/>
          <path class="cls-2" d="M468.57,214.6v18.61l1,.12-1-.06v.22h0c0,.92-1.23,1.61-3.59,2l-.07,0-.08,0c-7.36,2.57-23.18,4.23-40.32,4.23s-32.87-1.65-40.25-4.21l-.08,0-.08,0c-2.39-.42-3.62-1.11-3.64-2V214.6h88.11m1-1H379.46v19.86c0,1.63,1.6,2.56,4.47,3.07,7.29,2.52,22.72,4.26,40.58,4.26s33.39-1.75,40.65-4.28c2.83-.51,4.41-1.45,4.41-3,0,0,0-.07,0-.1s0-.08,0-.11V213.6Z"/>
        </g>
        <g>
          <path class="cls-3" d="M424.51,220.61c-26.26,0-44.55-3.71-44.55-7.05s18.29-7.05,44.55-7.05,44.56,3.72,44.56,7.05S450.77,220.61,424.51,220.61Z"/>
          <path class="cls-2" d="M424.51,207a201.72,201.72,0,0,1,31.7,2.2c12.22,2,12.36,4.33,12.36,4.35s-.14,2.3-12.36,4.35a229.41,229.41,0,0,1-63.39,0c-12.22-2-12.36-4.33-12.36-4.35s.14-2.3,12.36-4.35a201.58,201.58,0,0,1,31.69-2.2m0-1c-24.88,0-45.05,3.38-45.05,7.55s20.17,7.55,45.05,7.55,45.06-3.38,45.06-7.55S449.4,206,424.51,206Z"/>
        </g>
      </g>
    </g>
    <g>
      <g>
        <g>
          <path class="cls-3" d="M552.14,280.06c-17.13,0-33-1.67-40.43-4.24-4.13-.74-4.13-2.14-4.13-2.6V253.87h89.11v19.37c0,.44,0,1.81-4,2.54C585.21,278.38,569.32,280.06,552.14,280.06Z"/>
          <path class="cls-2" d="M596.19,254.37V273l1,.12-1,0v.21h0c0,.92-1.23,1.6-3.58,2l-.08,0-.08,0c-7.36,2.58-23.18,4.24-40.31,4.24s-32.88-1.66-40.26-4.21l-.08,0h-.08c-2.39-.43-3.61-1.11-3.64-2.05,0,0,0-.06,0-.1V254.37h88.11m1-1H507.08V273a.41.41,0,0,0,0,.11s0,.07,0,.1c0,1.63,1.61,2.57,4.47,3.07,7.29,2.53,22.72,4.27,40.59,4.27s33.38-1.75,40.64-4.29c2.83-.51,4.41-1.44,4.41-3a.38.38,0,0,0,0-.1.41.41,0,0,0,0-.11V253.37Z"/>
        </g>
        <g>
          <path class="cls-3" d="M552.14,260.37c-26.26,0-44.56-3.71-44.56-7s18.3-7.05,44.56-7.05,44.55,3.71,44.55,7.05S578.39,260.37,552.14,260.37Z"/>
          <path class="cls-2" d="M552.14,246.78A202.92,202.92,0,0,1,583.83,249c12.22,2.05,12.36,4.33,12.36,4.35s-.14,2.31-12.36,4.36a230.45,230.45,0,0,1-63.39,0c-12.22-2.05-12.36-4.33-12.36-4.36s.14-2.3,12.36-4.35a203,203,0,0,1,31.7-2.19m0-1c-24.89,0-45.06,3.38-45.06,7.54s20.17,7.55,45.06,7.55,45.05-3.38,45.05-7.55-20.17-7.54-45.05-7.54Z"/>
        </g>
      </g>
      <g>
        <g>
          <path class="cls-3" d="M552.14,260.17c-17.13,0-33-1.66-40.43-4.23-4.13-.74-4.13-2.14-4.13-2.6V234h89.11v19.38c0,.44,0,1.81-4,2.53C585.21,258.5,569.32,260.17,552.14,260.17Z"/>
          <path class="cls-2" d="M596.19,234.48v18.61l1,.12-1-.06v.22h0c0,.93-1.23,1.61-3.58,2l-.08,0-.08,0c-7.36,2.57-23.18,4.24-40.31,4.24s-32.88-1.66-40.26-4.22l-.08,0-.08,0c-2.39-.42-3.61-1.11-3.64-2,0,0,0-.06,0-.09v-18.8h88.11m1-1H507.08v19.65a.45.45,0,0,0,0,.11s0,.07,0,.1c0,1.63,1.61,2.56,4.47,3.07,7.29,2.52,22.72,4.27,40.59,4.27s33.38-1.76,40.64-4.29c2.83-.51,4.41-1.44,4.41-3a.34.34,0,0,0,0-.1.45.45,0,0,0,0-.11V233.48Z"/>
        </g>
        <g>
          <path class="cls-3" d="M552.14,240.49c-26.26,0-44.56-3.71-44.56-7.05s18.3-7.05,44.56-7.05,44.55,3.72,44.55,7.05S578.39,240.49,552.14,240.49Z"/>
          <path class="cls-2" d="M552.14,226.89a202.8,202.8,0,0,1,31.69,2.2c12.22,2,12.36,4.33,12.36,4.35s-.14,2.31-12.36,4.35a229.41,229.41,0,0,1-63.39,0c-12.22-2-12.36-4.32-12.36-4.35s.14-2.3,12.36-4.35a202.84,202.84,0,0,1,31.7-2.2m0-1c-24.89,0-45.06,3.38-45.06,7.55S527.25,241,552.14,241s45.05-3.38,45.05-7.55-20.17-7.55-45.05-7.55Z"/>
        </g>
      </g>
      <g>
        <g>
          <path class="cls-3" d="M552.14,240.29c-17.13,0-33-1.66-40.43-4.24-4.13-.73-4.13-2.13-4.13-2.59V214.1h89.11v19.38c0,.43,0,1.81-4,2.53C585.21,238.62,569.32,240.29,552.14,240.29Z"/>
          <path class="cls-2" d="M596.19,214.6v18.61l1,.12-1-.06v.22h0c0,.92-1.23,1.61-3.58,2l-.08,0-.08,0c-7.36,2.57-23.18,4.23-40.31,4.23s-32.88-1.65-40.26-4.21l-.08,0-.08,0c-2.39-.42-3.61-1.11-3.64-2,0,0,0-.06,0-.09V214.6h88.11m1-1H507.08v19.65a.45.45,0,0,0,0,.11s0,.07,0,.1c0,1.63,1.61,2.56,4.47,3.07,7.29,2.52,22.72,4.26,40.59,4.26s33.38-1.75,40.64-4.28c2.83-.51,4.41-1.45,4.41-3a.34.34,0,0,0,0-.1.45.45,0,0,0,0-.11V213.6Z"/>
        </g>
        <g>
          <path class="cls-3" d="M552.14,220.61c-26.26,0-44.56-3.71-44.56-7.05s18.3-7.05,44.56-7.05,44.55,3.72,44.55,7.05S578.39,220.61,552.14,220.61Z"/>
          <path class="cls-2" d="M552.14,207a201.58,201.58,0,0,1,31.69,2.2c12.22,2,12.36,4.33,12.36,4.35s-.14,2.3-12.36,4.35a229.41,229.41,0,0,1-63.39,0c-12.22-2-12.36-4.33-12.36-4.35s.14-2.3,12.36-4.35a201.63,201.63,0,0,1,31.7-2.2m0-1c-24.89,0-45.06,3.38-45.06,7.55s20.17,7.55,45.06,7.55,45.05-3.38,45.05-7.55S577,206,552.14,206Z"/>
        </g>
      </g>
    </g>
    <g>
      <g>
        <rect class="cls-4" x="257.63" y="138.87" width="76.8" height="30" transform="translate(592.06 307.75) rotate(180)"/>
        <path class="cls-2" d="M334.93,169.37h-77.8v-31h77.8Zm-76.8-1h75.8v-29h-75.8Z"/>
      </g>
      <g>
        <path class="cls-2" d="M276.27,157.61a4.31,4.31,0,0,1-1.69-1.72,6.17,6.17,0,0,1,0-5.43,4.31,4.31,0,0,1,1.69-1.72,4.81,4.81,0,0,1,2.32-.58,4.34,4.34,0,0,1,2.65.78,3.79,3.79,0,0,1,1.41,2.19l-1.64.42a2.89,2.89,0,0,0-.88-1.26,2.45,2.45,0,0,0-1.54-.45,2.81,2.81,0,0,0-1.42.37,2.67,2.67,0,0,0-1,1.12,4.79,4.79,0,0,0,0,3.69,2.61,2.61,0,0,0,1,1.12,2.81,2.81,0,0,0,1.42.37,2.45,2.45,0,0,0,1.54-.45,2.89,2.89,0,0,0,.88-1.26l1.64.42a3.79,3.79,0,0,1-1.41,2.19,4.34,4.34,0,0,1-2.65.78A4.81,4.81,0,0,1,276.27,157.61Z"/>
        <path class="cls-2" d="M285.49,157.71a3.17,3.17,0,0,1-1.24-1.3,4.24,4.24,0,0,1,0-3.72,3.19,3.19,0,0,1,1.24-1.31,4.14,4.14,0,0,1,3.83,0,3.13,3.13,0,0,1,1.24,1.31,4.24,4.24,0,0,1,0,3.72,3.1,3.1,0,0,1-1.24,1.3,4.06,4.06,0,0,1-3.83,0Zm3.2-1.63a2.43,2.43,0,0,0,.48-1.53,2.46,2.46,0,0,0-.48-1.54,1.52,1.52,0,0,0-1.28-.62,1.56,1.56,0,0,0-1.29.62,2.46,2.46,0,0,0-.48,1.54,2.43,2.43,0,0,0,.48,1.53,1.53,1.53,0,0,0,1.29.62A1.5,1.5,0,0,0,288.69,156.08Z"/>
        <path class="cls-2" d="M294.29,151v.73a1.67,1.67,0,0,1,.64-.58,2.2,2.2,0,0,1,1.07-.26,3,3,0,0,1,2.39,1,4.66,4.66,0,0,1,0,5.31,3,3,0,0,1-2.39,1,2.31,2.31,0,0,1-1-.23,1.88,1.88,0,0,1-.72-.53v3.5h-1.73V151Zm2.65,5.11a3,3,0,0,0,0-3.17,1.45,1.45,0,0,0-1.17-.57,1.42,1.42,0,0,0-1.17.57,3,3,0,0,0,0,3.18,1.49,1.49,0,0,0,2.34,0Z"/>
        <path class="cls-2" d="M304.67,151h1.73l-3.63,9.91h-1.69l1.21-3.33L299.74,151h1.75l1.61,4.34Z"/>
        <path class="cls-2" d="M313.47,148.28h1.82l3.32,9.8h-2l-.71-2.31h-3.11l-.71,2.31h-2Zm1.95,5.81-1-3.41-1,3.41Z"/>
      </g>
    </g>
    <g>
      <g>
        <rect class="cls-4" x="385.54" y="138.87" width="76.8" height="30" transform="translate(847.87 307.75) rotate(180)"/>
        <path class="cls-2" d="M462.84,169.37H385v-31h77.8Zm-76.8-1h75.8v-29H386Z"/>
      </g>
      <g>
        <path class="cls-2" d="M404.22,157.61a4.24,4.24,0,0,1-1.69-1.72,6.17,6.17,0,0,1,0-5.43,4.24,4.24,0,0,1,1.69-1.72,4.77,4.77,0,0,1,2.31-.58,4.37,4.37,0,0,1,2.66.78,3.73,3.73,0,0,1,1.4,2.19l-1.63.42a2.83,2.83,0,0,0-.89-1.26,2.41,2.41,0,0,0-1.54-.45,2.8,2.8,0,0,0-1.41.37,2.67,2.67,0,0,0-1,1.12,4.79,4.79,0,0,0,0,3.69,2.61,2.61,0,0,0,1,1.12,2.8,2.8,0,0,0,1.41.37,2.41,2.41,0,0,0,1.54-.45,2.83,2.83,0,0,0,.89-1.26l1.63.42a3.73,3.73,0,0,1-1.4,2.19,4.37,4.37,0,0,1-2.66.78A4.77,4.77,0,0,1,404.22,157.61Z"/>
        <path class="cls-2" d="M413.44,157.71a3.1,3.1,0,0,1-1.24-1.3,4.24,4.24,0,0,1,0-3.72,3.13,3.13,0,0,1,1.24-1.31,4.14,4.14,0,0,1,3.83,0,3.19,3.19,0,0,1,1.24,1.31,4.24,4.24,0,0,1,0,3.72,3.17,3.17,0,0,1-1.24,1.3,4.06,4.06,0,0,1-3.83,0Zm3.2-1.63a2.43,2.43,0,0,0,.48-1.53,2.46,2.46,0,0,0-.48-1.54,1.64,1.64,0,0,0-2.57,0,2.46,2.46,0,0,0-.48,1.54,2.43,2.43,0,0,0,.48,1.53,1.64,1.64,0,0,0,2.57,0Z"/>
        <path class="cls-2" d="M422.24,151v.73a1.6,1.6,0,0,1,.64-.58,2.2,2.2,0,0,1,1.07-.26,3,3,0,0,1,2.39,1,4.66,4.66,0,0,1,0,5.31,3,3,0,0,1-2.39,1,2.28,2.28,0,0,1-1-.23,1.88,1.88,0,0,1-.72-.53v3.5h-1.73V151Zm2.65,5.11a3,3,0,0,0,0-3.17,1.5,1.5,0,0,0-2.35,0,3,3,0,0,0,0,3.18,1.5,1.5,0,0,0,2.35,0Z"/>
        <path class="cls-2" d="M432.62,151h1.73l-3.64,9.91H429l1.21-3.33L427.69,151h1.75l1.61,4.34Z"/>
        <path class="cls-2" d="M442.67,148.28a2.93,2.93,0,0,1,2,.67,2.77,2.77,0,0,1,.51,3.06,1.67,1.67,0,0,1-.72.72,2.33,2.33,0,0,1,1.47,2.39,2.82,2.82,0,0,1-.86,2.19,3.43,3.43,0,0,1-2.37.77h-3.66v-9.8Zm.76,3.56a1,1,0,0,0,.29-.82,1,1,0,0,0-.3-.82,1.37,1.37,0,0,0-.89-.24H440.9v2.12h1.67A1.32,1.32,0,0,0,443.43,151.84Zm.34,4.22a1.45,1.45,0,0,0,0-2,1.79,1.79,0,0,0-1.2-.34H440.9v2.64h1.67A1.79,1.79,0,0,0,443.77,156.06Z"/>
      </g>
    </g>
    <g>
      <g>
        <rect class="cls-4" x="512.3" y="138.87" width="76.8" height="30" transform="translate(1101.4 307.75) rotate(180)"/>
        <path class="cls-2" d="M589.6,169.37H511.8v-31h77.8Zm-76.8-1h75.8v-29H512.8Z"/>
      </g>
      <g>
        <path class="cls-2" d="M530.35,157.61a4.24,4.24,0,0,1-1.69-1.72,6.17,6.17,0,0,1,0-5.43,4.24,4.24,0,0,1,1.69-1.72,4.77,4.77,0,0,1,2.31-.58,4.37,4.37,0,0,1,2.66.78,3.73,3.73,0,0,1,1.4,2.19l-1.64.42a2.81,2.81,0,0,0-.88-1.26,2.41,2.41,0,0,0-1.54-.45,2.8,2.8,0,0,0-1.41.37,2.67,2.67,0,0,0-1,1.12,4.79,4.79,0,0,0,0,3.69,2.61,2.61,0,0,0,1,1.12,2.8,2.8,0,0,0,1.41.37,2.41,2.41,0,0,0,1.54-.45,2.81,2.81,0,0,0,.88-1.26l1.64.42a3.73,3.73,0,0,1-1.4,2.19,4.37,4.37,0,0,1-2.66.78A4.77,4.77,0,0,1,530.35,157.61Z"/>
        <path class="cls-2" d="M539.56,157.71a3.14,3.14,0,0,1-1.23-1.3,4.24,4.24,0,0,1,0-3.72,3.17,3.17,0,0,1,1.23-1.31,3.85,3.85,0,0,1,1.92-.47,3.79,3.79,0,0,1,1.92.47,3.26,3.26,0,0,1,1.24,1.31,4.24,4.24,0,0,1,0,3.72,3.23,3.23,0,0,1-1.24,1.3,3.7,3.7,0,0,1-1.92.48A3.75,3.75,0,0,1,539.56,157.71Zm3.21-1.63a2.43,2.43,0,0,0,.48-1.53,2.46,2.46,0,0,0-.48-1.54,1.65,1.65,0,0,0-2.58,0,2.52,2.52,0,0,0-.47,1.54,2.49,2.49,0,0,0,.47,1.53,1.65,1.65,0,0,0,2.58,0Z"/>
        <path class="cls-2" d="M548.37,151v.73a1.53,1.53,0,0,1,.64-.58,2.2,2.2,0,0,1,1.07-.26,3,3,0,0,1,2.39,1,4.66,4.66,0,0,1,0,5.31,3,3,0,0,1-2.39,1,2.32,2.32,0,0,1-1-.23,1.92,1.92,0,0,1-.71-.53v3.5h-1.74V151Zm2.65,5.11a3,3,0,0,0,0-3.17,1.45,1.45,0,0,0-1.18-.57,1.42,1.42,0,0,0-1.17.57,3,3,0,0,0,0,3.18,1.5,1.5,0,0,0,2.35,0Z"/>
        <path class="cls-2" d="M558.74,151h1.74l-3.64,9.91h-1.68l1.2-3.33L553.82,151h1.75l1.61,4.34Z"/>
        <path class="cls-2" d="M567.05,157.61a4.28,4.28,0,0,1-1.68-1.72,6.17,6.17,0,0,1,0-5.43,4.28,4.28,0,0,1,1.68-1.72,4.84,4.84,0,0,1,2.32-.58,4.34,4.34,0,0,1,2.65.78,3.7,3.7,0,0,1,1.41,2.19l-1.64.42a2.81,2.81,0,0,0-.88-1.26,2.43,2.43,0,0,0-1.54-.45,2.8,2.8,0,0,0-1.41.37,2.61,2.61,0,0,0-1,1.12,4.67,4.67,0,0,0,0,3.69,2.55,2.55,0,0,0,1,1.12,2.8,2.8,0,0,0,1.41.37,2.43,2.43,0,0,0,1.54-.45,2.81,2.81,0,0,0,.88-1.26l1.64.42a3.7,3.7,0,0,1-1.41,2.19,4.34,4.34,0,0,1-2.65.78A4.84,4.84,0,0,1,567.05,157.61Z"/>
      </g>
    </g>
    <path class="cls-2" d="M217.24,242.07H159.07a.5.5,0,0,1-.5-.5.5.5,0,0,1,.5-.5h58.17a.5.5,0,0,1,.5.5A.51.51,0,0,1,217.24,242.07Z"/>
    <path class="cls-2" d="M207.14,252.37a.52.52,0,0,1-.36-.16.5.5,0,0,1,0-.71l10.37-9.92-9.92-10.36a.5.5,0,0,1,0-.71.5.5,0,0,1,.71,0l10.27,10.72a.54.54,0,0,1,.14.36.52.52,0,0,1-.16.35l-10.73,10.27A.49.49,0,0,1,207.14,252.37Z"/>
    <g>
      <rect class="cls-4" x="40.48" y="132.12" width="96" height="44" transform="translate(176.96 308.24) rotate(180)"/>
      <path class="cls-2" d="M137,176.62H40v-45h97Zm-96-1h95v-43H41Z"/>
    </g>
    <g>
      <path class="cls-2" d="M59.19,140H61v9.8H59.19Z"/>
      <path class="cls-2" d="M64.75,142.77v1.14a3.11,3.11,0,0,1,1-.91,2.26,2.26,0,0,1,1.21-.34,2.22,2.22,0,0,1,1.58.55,2,2,0,0,1,.59,1.58v5H67.37v-4.52a1.22,1.22,0,0,0-.27-.88,1,1,0,0,0-.74-.28,1.18,1.18,0,0,0-.8.33,2.48,2.48,0,0,0-.59,1,5,5,0,0,0-.22,1.55v2.81H63v-7.06Z"/>
      <path class="cls-2" d="M70.27,142.77H72l1.42,4.92,1.43-4.92h1.75l-2.39,7.06H72.66Z"/>
      <path class="cls-2" d="M83.9,146.86H79a2,2,0,0,0,.55,1.19,1.62,1.62,0,0,0,1.13.41,1.74,1.74,0,0,0,1-.27,2.46,2.46,0,0,0,.72-.82l1.4.51a3.18,3.18,0,0,1-3.21,2.06,3.24,3.24,0,0,1-1.91-.54A3.17,3.17,0,0,1,77.58,148a4.29,4.29,0,0,1-.36-1.73,4.36,4.36,0,0,1,.36-1.73,3.13,3.13,0,0,1,3-1.91,3.07,3.07,0,0,1,2.94,1.85,3.93,3.93,0,0,1,.35,1.64Zm-1.78-1.37a1.91,1.91,0,0,0-.49-1,1.38,1.38,0,0,0-1-.37,1.43,1.43,0,0,0-1,.34,1.87,1.87,0,0,0-.58,1Z"/>
      <path class="cls-2" d="M87.21,142.77v1.14a3.19,3.19,0,0,1,1-.91,2.29,2.29,0,0,1,1.22-.34,2.24,2.24,0,0,1,1.58.55,2.05,2.05,0,0,1,.59,1.58v5H89.82v-4.52a1.22,1.22,0,0,0-.27-.88,1,1,0,0,0-.73-.28,1.16,1.16,0,0,0-.8.33,2.48,2.48,0,0,0-.59,1,4.75,4.75,0,0,0-.22,1.55v2.81H85.47v-7.06Z"/>
      <path class="cls-2" d="M94.32,149.28a2.54,2.54,0,0,1-.69-1.94v-3.08H92.54v-1.49h1.09V141l1.74-1.09v2.85h1.86v1.49H95.37v3.05a1.36,1.36,0,0,0,.23.89.89.89,0,0,0,.69.26,1.42,1.42,0,0,0,.67-.17l.41,1.4a2.68,2.68,0,0,1-1.15.25A2.63,2.63,0,0,1,94.32,149.28Z"/>
      <path class="cls-2" d="M99.51,149.47a3.19,3.19,0,0,1-1.24-1.31,4.33,4.33,0,0,1,0-3.72,3.23,3.23,0,0,1,1.24-1.3,4.08,4.08,0,0,1,3.84,0,3.23,3.23,0,0,1,1.24,1.3,4.33,4.33,0,0,1,0,3.72,3.19,3.19,0,0,1-1.24,1.31,4.16,4.16,0,0,1-3.84,0Zm3.21-1.63a2.74,2.74,0,0,0,0-3.07,1.65,1.65,0,0,0-2.58,0,2.74,2.74,0,0,0,0,3.07,1.65,1.65,0,0,0,2.58,0Z"/>
      <path class="cls-2" d="M108.32,142.77v1.15a2.82,2.82,0,0,1,.92-.93,2.22,2.22,0,0,1,1.16-.33,3.08,3.08,0,0,1,.86.14l-.32,1.61a1.4,1.4,0,0,0-.73-.19,1.62,1.62,0,0,0-1.36.75,4.12,4.12,0,0,0-.53,2.35v2.51h-1.74v-7.06Z"/>
      <path class="cls-2" d="M117,142.77h1.74l-3.64,9.92h-1.68l1.2-3.34-2.55-6.58h1.75l1.61,4.34Z"/>
      <path class="cls-2" d="M63.46,156.83a4.91,4.91,0,0,1,2.25.53A4.09,4.09,0,0,1,67.38,159a6.19,6.19,0,0,1,0,5.48,4.09,4.09,0,0,1-1.67,1.63,4.91,4.91,0,0,1-2.25.53H60.39v-9.8Zm1.77,7.4a3.79,3.79,0,0,0,0-5,3.78,3.78,0,0,0-2.35-.72h-.67V165h.67A3.78,3.78,0,0,0,65.23,164.23Z"/>
      <path class="cls-2" d="M69.88,166.18a2.26,2.26,0,0,1,.2-3.26,3.37,3.37,0,0,1,2.15-.63h1.24V162a.9.9,0,0,0-.35-.77,1.42,1.42,0,0,0-.89-.26,1.18,1.18,0,0,0-1.21.81l-1.47-.34a2.2,2.2,0,0,1,.9-1.42,2.92,2.92,0,0,1,1.78-.54,3,3,0,0,1,2.19.75,2.93,2.93,0,0,1,.78,2.21v4.21H73.77l-.18-.9a2.64,2.64,0,0,1-2.17,1A2.15,2.15,0,0,1,69.88,166.18ZM73,164.86a1.32,1.32,0,0,0,.48-1.06v-.14H72.3a1.52,1.52,0,0,0-.89.23.77.77,0,0,0-.31.68.62.62,0,0,0,.22.5.79.79,0,0,0,.56.19A1.67,1.67,0,0,0,73,164.86Z"/>
      <path class="cls-2" d="M78,166.08a2.54,2.54,0,0,1-.69-1.94v-3.08H76.17v-1.49h1.09v-1.76L79,156.72v2.85h1.86v1.49H79v3.05a1.3,1.3,0,0,0,.23.89.88.88,0,0,0,.69.26,1.45,1.45,0,0,0,.67-.17l.41,1.4a2.71,2.71,0,0,1-1.15.25A2.61,2.61,0,0,1,78,166.08Z"/>
      <path class="cls-2" d="M82.31,166.18a2.26,2.26,0,0,1,.2-3.26,3.39,3.39,0,0,1,2.16-.63H85.9V162a.9.9,0,0,0-.35-.77,1.41,1.41,0,0,0-.88-.26,1.18,1.18,0,0,0-1.22.81L82,161.42a2.2,2.2,0,0,1,.9-1.42,3,3,0,0,1,1.79-.54,3,3,0,0,1,2.19.75,3,3,0,0,1,.77,2.21v4.21H86.21l-.19-.9a2.64,2.64,0,0,1-2.17,1A2.15,2.15,0,0,1,82.31,166.18Zm3.11-1.32a1.32,1.32,0,0,0,.48-1.06v-.14H84.74a1.5,1.5,0,0,0-.89.23.78.78,0,0,0-.32.68.62.62,0,0,0,.22.5.8.8,0,0,0,.57.19A1.64,1.64,0,0,0,85.42,164.86Z"/>
      <path class="cls-2" d="M91.83,166.48a1.53,1.53,0,0,1-.64-.58v.73H89.45v-9.91h1.74v3.5a1.92,1.92,0,0,1,.71-.53,2.32,2.32,0,0,1,1-.23,2.93,2.93,0,0,1,2.38,1,4.62,4.62,0,0,1,0,5.31,3,3,0,0,1-2.38,1A2.2,2.2,0,0,1,91.83,166.48Zm2-1.8a2.91,2.91,0,0,0,0-3.17,1.5,1.5,0,0,0-2.34,0,3,3,0,0,0,0,3.18,1.42,1.42,0,0,0,1.17.57A1.4,1.4,0,0,0,93.83,164.68Z"/>
      <path class="cls-2" d="M97.84,166.18a2.05,2.05,0,0,1-.6-1.58,2,2,0,0,1,.8-1.68,3.37,3.37,0,0,1,2.15-.63h1.23V162a.88.88,0,0,0-.35-.77,1.37,1.37,0,0,0-.88-.26,1.19,1.19,0,0,0-1.22.81l-1.47-.34a2.26,2.26,0,0,1,.91-1.42,2.92,2.92,0,0,1,1.78-.54,3,3,0,0,1,2.19.75,2.93,2.93,0,0,1,.78,2.21v4.21h-1.43l-.18-.9a2.64,2.64,0,0,1-2.17,1A2.13,2.13,0,0,1,97.84,166.18Zm3.11-1.32a1.34,1.34,0,0,0,.47-1.06v-.14h-1.16a1.52,1.52,0,0,0-.89.23.77.77,0,0,0-.31.68.64.64,0,0,0,.21.5.84.84,0,0,0,.57.19A1.67,1.67,0,0,0,101,164.86Z"/>
      <path class="cls-2" d="M105.31,166.18a2.65,2.65,0,0,1-1-1.34l1.39-.74a2,2,0,0,0,.55.85,1.24,1.24,0,0,0,.85.31.93.93,0,0,0,.58-.18.59.59,0,0,0,.23-.51.66.66,0,0,0-.36-.55,7.23,7.23,0,0,0-1.09-.51,3.42,3.42,0,0,1-1.24-.81,1.79,1.79,0,0,1-.44-1.26,1.82,1.82,0,0,1,.28-1,2.12,2.12,0,0,1,.8-.71,2.34,2.34,0,0,1,1.14-.27,2.87,2.87,0,0,1,1.31.3,2.26,2.26,0,0,1,.91.85l-1,.95a1.3,1.3,0,0,0-1.13-.61.88.88,0,0,0-.49.14.47.47,0,0,0-.2.39.62.62,0,0,0,.29.47,5.2,5.2,0,0,0,1.15.52,3.35,3.35,0,0,1,1.28.77,1.76,1.76,0,0,1,.44,1.22,2.16,2.16,0,0,1-.67,1.66,2.48,2.48,0,0,1-1.73.62A2.89,2.89,0,0,1,105.31,166.18Z"/>
      <path class="cls-2" d="M117.1,163.66h-4.87a2,2,0,0,0,.55,1.19,1.62,1.62,0,0,0,1.13.41,1.74,1.74,0,0,0,1-.27,2.57,2.57,0,0,0,.72-.82l1.4.51a3.41,3.41,0,0,1-1.21,1.53,3.52,3.52,0,0,1-2,.53,3.24,3.24,0,0,1-1.91-.54,3.17,3.17,0,0,1-1.12-1.37,4.29,4.29,0,0,1-.36-1.73,4.36,4.36,0,0,1,.36-1.73,3.13,3.13,0,0,1,3-1.91,3.07,3.07,0,0,1,2.94,1.85,3.93,3.93,0,0,1,.35,1.64Zm-1.77-1.37a2,2,0,0,0-.5-1,1.38,1.38,0,0,0-1-.37,1.43,1.43,0,0,0-1,.34,1.87,1.87,0,0,0-.58,1Z"/>
    </g>
  </g>
</svg>
